<?xml version="1.0" encoding="UTF-8"?><svg id="Layer_1" xmlns="http://www.w3.org/2000/svg" width="871" height="952" xmlns:xlink="http://www.w3.org/1999/xlink" viewBox="0 0 871 952"><defs><style>.cls-1{fill:none;}.cls-1,.cls-2,.cls-3{stroke-width:0px;}.cls-4{clip-path:url(#clippath-1);}.cls-2{fill:#ffb392;}.cls-5{clip-path:url(#clippath);}.cls-3{fill:url(#radial-gradient);}</style><clipPath id="clippath"><rect class="cls-1" x="213" y="368" width="416.5" height="368.97"/></clipPath><clipPath id="clippath-1"><path class="cls-1" d="m414.68,368s0,0,0,0c0,.31,0,.61-.01.93v.65c-.18,10.62-1.7,21.07-6.78,30.28-3.65,6.6-9.2,12.34-16.24,15-7.04,2.66-15.61,1.79-21.24-3.2,6.6,6.68,8.67,18.12,3.12,25.7-3.84,5.25-11.45,7.18-17.41,5.2,2.31,3.09,3.88,7.04,5.19,10.73,2.81,7.96,5.66,16.13,5.62,24.58-.04,8.45-3.55,17.38-10.83,21.68-9.52,5.64-21.79,1.72-31.38-3.81-2.63-1.52-9.92-4.91-16.99-12.2-5.92-6.12-9.35-12.31-11.29-16.53-.39,2.78-.72,5.69-1.01,8.7-.25,2.66-.43,5.23-.57,7.72-11.83-.74-21.6-7.68-30.04-16.41-.21.03-.43.06-.64.07-.01.01-.03.03-.04.04,2.74,3.86,5.23,7.88,7.21,12.18,4.59,10.02,6.32,21.86,2.14,32.06-4.18,10.2-15.27,17.88-26.09,15.88,12.93,3.66,24.89,10.63,34.45,20.08,5.27,5.21,10.09,12.15,8.81,19.45-1.41,8.13-9.63,13.05-17.27,16.16-19.05,7.72-39.92,10.9-60.39,9.19,26.06,2.98,51.43,12.04,73.5,26.24,4.43,2.85,8.85,6.04,11.54,10.56,2.7,4.52,3.26,10.7.01,14.86,3.48-2.35,12.69-7.86,24.84-7.01,2.98.21,9.95.79,16.7,5.57,2.5,1.77,6.64,4.7,8.35,9.74,1.64,4.86.49,10.01-2.78,16.7-7.64,15.65-21.07,28.07-29.22,34.79,17.02-1.02,49.5-5.53,80.71-27.83,9.27-6.62,16.82-13.68,22.9-20.32.84,27.18,1.66,54.37,2.48,81.54,3.61-3.61,7.2-7.2,10.8-10.8-2.3-10.21-4.3-21.99-5.4-35.08-1.18-14.06-1.09-26.86-.38-38.03,6.26,5.69,13.72,11.58,22.47,17.12,27.59,17.46,54.77,23.09,72.36,25.05-7.89-4.34-20.26-12.89-27.83-27.83-3.2-6.32-6.96-14.04-4.17-22.27,2.48-7.29,8.81-11.12,11.13-12.52,7.38-4.45,14.61-4.31,22.26-4.17,5.59.11,14.28.93,24.48,4.77-3.48-3.95-3.3-10.16-.89-14.83,2.42-4.68,6.64-8.13,10.88-11.24,21.15-15.53,45.91-26.12,71.76-30.68-20.34,2.96-41.37,1.07-60.85-5.48-7.82-2.63-16.32-7.06-18.23-15.07-1.71-7.21,2.67-14.43,7.61-19.96,8.96-10,20.48-17.7,33.16-22.14-10.69,2.66-22.22-4.34-27.01-14.26-4.79-9.92-3.8-21.85.17-32.13,2.14-5.53,5.07-10.67,8.32-15.61-.03-.02-.06-.03-.08-.06-8.39,10.56-18.44,19.59-31.45,21.22-.07-2.13-.33-4.75-1.04-7.68-.79-3.26-1.89-5.94-2.91-8-2.95,7.15-10,21.01-25.1,29.81-6.3,3.67-19.9,11.45-31.09,5.72-7.53-3.85-11.56-12.55-12.13-20.98-.56-8.43,1.8-16.76,4.12-24.87,1.09-3.76,2.39-7.81,4.54-11.04-5.83,2.34-13.55.89-17.71-4.12-6-7.24-4.63-18.79,1.54-25.86-5.3,5.33-13.8,6.72-21,4.5-7.19-2.23-13.09-7.62-17.12-13.98-5.4-8.49-7.6-18.34-8.52-28.44,0,0-.01,0-.02,0h0Z"/></clipPath><radialGradient id="radial-gradient" cx="-3468.19" cy="426.43" fx="-3468.19" fy="426.43" r="1" gradientTransform="translate(682706.99 84442.51) scale(196.73 -196.73)" gradientUnits="userSpaceOnUse"><stop offset="0" stop-color="#aa6d00"/><stop offset=".24" stop-color="#a86900"/><stop offset=".46" stop-color="#a35e00"/><stop offset=".67" stop-color="#9a4c00"/><stop offset=".88" stop-color="#8e3200"/><stop offset="1" stop-color="#851f00"/></radialGradient></defs><path class="cls-2" d="m100.5,847.5V72.77c31.9,0,63.8,8.25,92.38,24.75l510.94,294.99c57.16,33,92.38,93.99,92.38,160v294.99s-695.69,0-695.69,0Z"/><g id="Artwork_2"><g class="cls-5"><g class="cls-4"><rect class="cls-3" x="213" y="368" width="416.5" height="368.97"/></g></g></g></svg>