<?xml version="1.0" encoding="UTF-8"?><svg id="Layer_1" xmlns="http://www.w3.org/2000/svg" width="1117.56" height="1519.1" xmlns:xlink="http://www.w3.org/1999/xlink" viewBox="0 0 1117.56 1519.1"><defs><style>.cls-1{fill:none;}.cls-1,.cls-2,.cls-3{stroke-width:0px;}.cls-4{clip-path:url(#clippath-1);}.cls-2{fill:#ffb392;}.cls-5{clip-path:url(#clippath);}.cls-3{fill:url(#radial-gradient);}</style><clipPath id="clippath"><rect class="cls-1" x="266.64" y="408.07" width="794.65" height="703.97"/></clipPath><clipPath id="clippath-1"><path class="cls-1" d="m651.44,408.08s-.01,0-.02,0c0,.59,0,1.17-.03,1.78v1.25c-.35,20.26-3.24,40.2-12.93,57.77-6.96,12.58-17.55,23.55-30.98,28.62-13.43,5.07-29.79,3.42-40.51-6.11,12.58,12.74,16.54,34.57,5.95,49.04-7.33,10.01-21.85,13.7-33.21,9.93,4.41,5.9,7.41,13.44,9.9,20.47,5.36,15.19,10.81,30.77,10.73,46.89-.08,16.11-6.77,33.16-20.66,41.36-18.16,10.75-41.58,3.29-59.87-7.27-5.02-2.89-18.93-9.37-32.42-23.28-11.29-11.68-17.84-23.49-21.53-31.54-.74,5.31-1.38,10.86-1.94,16.59-.48,5.07-.82,9.98-1.09,14.73-22.57-1.41-41.2-14.66-57.32-31.3-.4.05-.82.11-1.22.13-.02.02-.05.05-.08.08,5.23,7.36,9.98,15.03,13.75,23.23,8.76,19.12,12.05,41.71,4.09,61.17-7.97,19.46-29.12,34.12-49.78,30.29,24.66,6.98,47.5,20.29,65.74,38.31,10.06,9.93,19.25,23.18,16.81,37.11-2.68,15.51-18.37,24.9-32.95,30.82-36.35,14.73-76.17,20.79-115.23,17.52,49.73,5.68,98.12,22.96,140.23,50.07,8.44,5.44,16.89,11.52,22.01,20.15,5.15,8.63,6.21,20.42.03,28.36,6.64-4.49,24.21-15,47.39-13.38,5.68.4,18.98,1.51,31.86,10.62,4.78,3.37,12.66,8.97,15.93,18.59,3.13,9.26.93,19.09-5.31,31.86-14.57,29.87-40.19,53.55-55.75,66.37,32.47-1.94,94.44-10.54,153.99-53.1,17.68-12.64,32.1-26.1,43.7-38.76,1.59,51.85,3.16,103.73,4.72,155.58,6.88-6.88,13.73-13.73,20.6-20.6-4.38-19.49-8.2-41.95-10.3-66.93-2.26-26.82-2.07-51.24-.72-72.56,11.95,10.86,26.18,22.09,42.88,32.66,52.65,33.32,104.5,44.05,138.06,47.79-15.05-8.28-38.66-24.59-53.1-53.1-6.11-12.05-13.27-26.79-7.96-42.48,4.73-13.91,16.81-21.21,21.24-23.89,14.07-8.5,27.88-8.23,42.48-7.96,10.67.21,27.24,1.78,46.7,9.11-6.64-7.54-6.29-19.38-1.7-28.3,4.62-8.92,12.66-15.5,20.76-21.45,40.35-29.63,87.59-49.83,136.91-58.54-38.81,5.66-78.93,2.04-116.1-10.46-14.92-5.02-31.14-13.46-34.78-28.75-3.26-13.75,5.1-27.53,14.52-38.07,17.1-19.09,39.08-33.77,63.27-42.24-20.39,5.07-42.4-8.28-51.53-27.21-9.13-18.93-7.25-41.68.32-61.3,4.09-10.54,9.67-20.36,15.88-29.79-.05-.03-.11-.05-.16-.11-16.01,20.15-35.18,37.38-60,40.49-.13-4.06-.64-9.05-1.99-14.66-1.51-6.21-3.61-11.34-5.55-15.26-5.63,13.65-19.09,40.09-47.89,56.87-12.03,7.01-37.97,21.85-59.31,10.91-14.36-7.36-22.06-23.95-23.15-40.04-1.06-16.09,3.42-31.97,7.86-47.44,2.07-7.17,4.57-14.9,8.66-21.05-11.13,4.46-25.86,1.7-33.8-7.86-11.44-13.81-8.84-35.84,2.95-49.33-10.12,10.17-26.34,12.83-40.06,8.58-13.73-4.25-24.98-14.55-32.65-26.68-10.3-16.2-14.5-34.99-16.25-54.27-.01,0-.03,0-.04,0h-.02Z"/></clipPath><radialGradient id="radial-gradient" cx="-1852.56" cy="2280.83" fx="-1852.56" fy="2280.83" r="1.91" gradientTransform="translate(365112.31 449460.42) scale(196.73 -196.73)" gradientUnits="userSpaceOnUse"><stop offset="0" stop-color="#aa6d00"/><stop offset=".24" stop-color="#a86900"/><stop offset=".46" stop-color="#a35e00"/><stop offset=".67" stop-color="#9a4c00"/><stop offset=".88" stop-color="#8e3200"/><stop offset="1" stop-color="#851f00"/></radialGradient></defs><path class="cls-2" d="m0,742.32l900.54,776.77,87.11-50.07c79.02-45.41,127.81-129.53,127.99-220.67l1.91-971.25c.18-91.14-48.28-175.45-127.12-221.17L894.01,0,0,742.32Z"/><g id="Artwork_2"><g class="cls-5"><g class="cls-4"><rect class="cls-3" x="266.64" y="408.08" width="794.65" height="703.97"/></g></g></g></svg>