<?xml version="1.0" encoding="UTF-8"?><svg id="Layer_1" xmlns="http://www.w3.org/2000/svg" width="423" height="451" xmlns:xlink="http://www.w3.org/1999/xlink" viewBox="0 0 423 451"><defs><style>.cls-1{fill:#b179b7;}.cls-1,.cls-2,.cls-3,.cls-4{stroke-width:0px;}.cls-2{fill:#c88bd1;}.cls-3{fill:#ffa300;}.cls-4{fill:url(#radial-gradient);}</style><radialGradient id="radial-gradient" cx="214.86" cy="236.01" fx="214.86" fy="236.01" r="178.12" gradientUnits="userSpaceOnUse"><stop offset="0" stop-color="#dfadda"/><stop offset="1" stop-color="#b179b7"/></radialGradient></defs><path class="cls-1" d="m213.83,235.88s.05-.02.07-.03c-.01.01-.01.03-.02.04,0,.03-.02.07-.02.1-.03.01-.06.01-.09.01.02-.02.03-.05.05-.08,0-.01.01-.02.01-.04Z"/><path class="cls-1" d="m214.44,235.9s-.08.02-.11.02c-.03-.04-.07-.09-.1-.13-.03-.03-.06-.07-.1-.1-.04-.05-.08-.1-.13-.14.07.03.15.06.22.08-.01.01-.02.01-.03.02.08.02.15.06.22.1-.04.01-.08.02-.13.03.05.05.1.09.16.12Z"/><path class="cls-1" d="m213.59,236.01s.01.03.02.04c-.01,0,0,.01,0,.01-.01.01-.02.01-.02.02v-.07Z"/><path class="cls-1" d="m213.83,235.88s.05-.02.07-.03c-.01.01-.01.03-.02.04,0,.03-.02.07-.02.1-.01.01-.01.03-.01.04-.03,0-.07,0-.1,0,0,0,.02-.01.02-.02.02-.02.03-.05.05-.08,0-.01.01-.02.01-.04Z"/><path class="cls-1" d="m214.44,235.9s-.08.02-.11.02c-.03-.04-.07-.09-.1-.13-.03-.03-.06-.07-.1-.1-.04-.05-.08-.1-.13-.14.07.03.15.06.22.08-.01.01-.02.01-.03.02.08.02.15.06.22.1-.04.01-.08.02-.13.03.05.05.1.09.16.12Z"/><path class="cls-1" d="m214.41,235.75s-.08.02-.13.03c-.05-.03-.09-.06-.13-.1-.05-.04-.1-.08-.15-.13.07.03.15.06.22.08-.01.01-.02.01-.03.02.08.02.15.06.22.1Z"/><path class="cls-1" d="m213.59,236.01s.01.03.02.04c-.01,0,0,.01,0,.01-.01.01-.02.01-.02.02v-.07Z"/><path class="cls-1" d="m213.9,235.85s-.01.03-.02.04c0,.03-.02.07-.02.1-.01.01-.01.03-.01.04-.03,0-.07,0-.1,0,0,0,.02-.01.02-.02.02-.02.03-.05.05-.08,0-.01.01-.02.01-.04.02-.01.05-.02.07-.03Z"/><path class="cls-1" d="m213.59,236.01s.01.03.02.04c-.01,0,0,.01,0,.01-.01.01-.02.01-.02.02v-.07Z"/><path class="cls-1" d="m213.83,235.88s.05-.02.07-.03c-.01.01-.01.03-.02.04,0,.03-.02.07-.02.1-.01.01-.01.03-.01.04-.03,0-.07,0-.1,0,0,0,.02-.01.02-.02.02-.02.03-.05.05-.08,0-.01.01-.02.01-.04Z"/><path class="cls-1" d="m214.44,235.9s-.08.02-.11.02c-.03-.04-.07-.09-.1-.13-.03-.03-.06-.07-.1-.1-.04-.05-.08-.1-.13-.14.07.03.13.06.19.1.08.02.15.06.22.1-.04.01-.08.02-.13.03.05.05.1.09.16.12Z"/><path class="cls-1" d="m214.44,235.9s-.08.02-.11.02c-.03-.04-.07-.09-.1-.13-.03-.03-.06-.07-.1-.1-.04-.05-.08-.1-.13-.14.07.03.15.06.22.08-.01.01-.02.01-.03.02.08.02.15.06.22.1-.04.01-.08.02-.13.03.05.05.1.09.16.12Z"/><path class="cls-1" d="m213.61,236.05s0,.01,0,.01c-.01.01-.02.01-.02.02v-.07s.01.03.02.04Z"/><path class="cls-1" d="m214.22,235.63s-.02.01-.03.02-.03.02-.04.03-.01.01-.02.01c-.04-.05-.08-.1-.13-.14.07.03.15.06.22.08Z"/><path class="cls-1" d="m213.59,236.01s.01.03.02.04c-.01,0,0,.01,0,.01-.01.01-.02.01-.02.02v-.07Z"/><path class="cls-1" d="m213.82,235.92s.04-.02.06-.03c0,.03-.02.07-.02.1-.01.01-.01.03-.01.04-.03,0-.07,0-.1,0,0,0,.02-.01.02-.02.02-.02.03-.05.05-.08Z"/><path class="cls-1" d="m214.44,235.9s-.08.02-.11.02c-.03-.04-.07-.09-.1-.13.02,0,.04-.01.05-.01.05.05.1.09.16.12Z"/><path class="cls-1" d="m213.83,235.88s.05-.02.07-.03c-.01.01-.01.03-.02.04,0,.03-.02.07-.02.1-.01.01-.01.03-.01.04-.03,0-.07,0-.1,0,0,0,.02-.01.02-.02.02-.02.03-.05.05-.08,0-.01.01-.02.01-.04Z"/><path class="cls-1" d="m214.44,235.9s-.08.02-.11.02c-.03-.04-.07-.09-.1-.13-.03-.03-.06-.07-.1-.1-.04-.05-.08-.1-.13-.14.07.03.15.06.22.08-.01.01-.02.01-.03.02.08.02.15.06.22.1-.04.01-.08.02-.13.03.05.05.1.09.16.12Z"/><path class="cls-1" d="m213.61,236.05s0,.01,0,.01c-.01.01-.02.01-.02.02v-.07s.01.03.02.04Z"/><path class="cls-1" d="m213.61,236.05s0,.01,0,.01c-.01.01-.02.01-.02.02v-.07s.01.03.02.04Z"/><path class="cls-1" d="m392.59,236.01c0-9.39-40.07-17-89.5-17-4.48,0-8.87.06-13.17.19,3.95-1.7,7.97-3.49,12.03-5.37,44.86-20.76,78.02-44.5,74.08-53.02-3.94-8.5-43.36,1.36-88.1,22.05.07-.08.15-.15.22-.23,34.17-35.72,56.37-69.93,49.59-76.42-6.73-6.44-39.42,16.79-73.28,52,18.59-45.17,26.7-84.45,18.09-88.01-8.67-3.6-31.05,30.5-49.98,76.16-.68,1.64-1.35,3.28-2,4.9.01-1.57.02-3.16.02-4.75,0-49.43-7.61-89.5-17-89.5s-17,40.07-17,89.5c0,4.48.06,8.87.19,13.17-1.7-3.95-3.49-7.97-5.37-12.03-20.76-44.86-44.5-78.02-53.02-74.08-8.4,3.9,1.13,42.44,21.33,86.54-35.22-33.44-68.66-54.99-75.07-48.3-6.44,6.72,16.81,39.42,52.02,73.28-45.18-18.59-84.46-26.7-88.02-18.1-3.6,8.67,30.5,31.05,76.16,49.98,1.7.71,3.4,1.4,5.08,2.08-1.92-.03-3.85-.04-5.8-.04-49.43,0-89.5,7.61-89.5,17s40.07,17,89.5,17c4.48,0,8.87-.06,13.17-.19-3.95,1.7-7.97,3.49-12.03,5.37-44.86,20.76-78.02,44.5-74.08,53.02,3.94,8.5,43.29-1.34,87.98-22-33.77,35.45-55.61,69.23-48.87,75.68,6.72,6.43,39.41-16.79,73.26-52-18.58,45.17-26.68,84.44-18.08,88.01,8.67,3.6,31.05-30.5,49.98-76.17.4-.97.8-1.93,1.19-2.89-.02,1.22-.02,2.44-.02,3.67,0,49.43,7.61,89.5,17,89.5s17-40.07,17-89.5c0-4.48-.06-8.87-.19-13.17,1.7,3.95,3.49,7.97,5.37,12.03,20.76,44.86,44.5,78.02,53.02,74.08,8.52-3.95-1.4-43.51-22.17-88.36-.19-.41-.38-.82-.57-1.22.29.27.58.55.87.83,35.71,34.17,69.93,56.37,76.42,49.59,6.43-6.73-16.79-39.42-52-73.27,45.17,18.58,84.44,26.68,88.01,18.08,3.59-8.67-30.51-31.05-76.17-49.98-.91-.38-1.82-.75-2.73-1.12.88.01,1.76.01,2.64.01,49.43,0,89.5-7.61,89.5-17Zm-179,0s.01.03.02.04c-.01,0,0,.01,0,.01-.01.01-.02.01-.02.02v-.07Zm.18-.01s.03-.05.05-.08c0-.01.01-.02.01-.04.02-.01.05-.02.07-.03-.01.01-.01.03-.02.04,0,.03-.02.07-.02.1-.01.01-.01.03-.01.04-.03,0-.07,0-.1,0,0,0,.02-.01.02-.02Zm.45-.37s-.02.01-.03.02c.08.02.15.06.22.1-.04.01-.08.02-.13.03.05.05.1.09.16.12-.04,0-.08.02-.11.02-.03-.04-.07-.09-.1-.13-.03-.03-.06-.07-.1-.1-.04-.05-.08-.1-.13-.14.07.03.15.06.22.08Z"/><path class="cls-1" d="m213.83,235.88s.05-.02.07-.03c-.01.01-.01.03-.02.04,0,.03-.02.07-.02.1-.01.01-.01.03-.01.04-.03,0-.07,0-.1,0,0,0,.02-.01.02-.02.02-.02.03-.05.05-.08,0-.01.01-.02.01-.04Z"/><path class="cls-1" d="m214.44,235.9s-.08.02-.11.02c-.03-.04-.07-.09-.1-.13-.03-.03-.06-.07-.1-.1-.04-.05-.08-.1-.13-.14.07.03.15.06.22.08-.01.01-.02.01-.03.02.08.02.15.06.22.1-.04.01-.08.02-.13.03.05.05.1.09.16.12Z"/><path class="cls-2" d="m214.23,236c0,.07.02.13.04.2-.05-.07-.1-.13-.16-.18.01,0,.02,0,.03,0,.02,0,.04,0,.06,0-.01-.05-.03-.12-.07-.17.02.01.03.01.05.02.01.05.03.1.04.15Z"/><path class="cls-2" d="m214.52,236.48s.06.07.09.09c-.02.04-.03.08-.04.12-.02-.05-.06-.11-.09-.16.02-.02.03-.03.04-.05Z"/><path class="cls-2" d="m214.83,235.99s.03,0,.04.02c-.02,0-.05,0-.07,0h.01s0,0,.02-.02Z"/><path class="cls-2" d="m214.99,236.08s-.08,0-.12.01h-.01s-.03,0-.04,0-.01,0-.01,0c.02-.03.04-.07.07-.1.05.03.08.05.12.08Z"/><path class="cls-2" d="m214.23,236c0,.07.02.13.04.2-.05-.07-.1-.13-.16-.18.01,0,.02,0,.03,0,.02,0,.04,0,.06,0-.01-.05-.03-.12-.07-.17.02.01.03.01.05.02.01.05.03.1.04.15Z"/><path class="cls-2" d="m214.97,235.8s-.04.09-.07.14c0,.02-.02.04-.03.06-.02,0-.05,0-.07,0h.01s0,0,.02-.02h0s-.07-.05-.09-.07c.04-.02.09-.05.13-.06.01-.08.01-.17.02-.25.04-.04.06-.07.09-.12-.04.12-.07.24-.08.36.02-.02.05-.03.08-.04Z"/><path class="cls-4" d="m392.96,253.94c.93-9.32-37.94-20.87-86.93-25.85,47.12-13.32,83.1-31.3,80.59-40.26-2.51-8.97-42.47-5.6-89.55,7.47,39-29.42,65.95-59.11,60.37-66.56-5.64-7.51-42.26,10.46-81.79,40.13-.83.62-1.65,1.25-2.47,1.87.62-1.03,1.24-2.08,1.86-3.13,25.15-42.55,39-80.92,30.91-85.7-8.08-4.78-35.03,25.84-60.18,68.39-2.28,3.85-4.45,7.67-6.54,11.42.55-4.26,1.05-8.62,1.5-13.07,4.96-49.18,1.4-89.81-7.94-90.76-9.34-.93-20.93,38.17-25.89,87.35-.04.44-.09.89-.13,1.33-.11-.38-.21-.77-.32-1.15-13.35-47.6-31.51-84.11-40.55-81.58-8.97,2.51-5.6,42.47,7.47,89.55-29.43-38.99-59.11-65.95-66.56-60.37-7.51,5.64,10.46,42.26,40.13,81.79.59.78,1.18,1.56,1.77,2.33-.75-.44-1.5-.88-2.25-1.33-42.55-25.15-80.92-39-85.69-30.91-4.79,8.08,25.83,35.03,68.38,60.18,3.85,2.27,7.65,4.45,11.4,6.53-4.26-.55-8.61-1.05-13.05-1.5-49.18-4.95-89.81-1.4-90.76,7.94-.93,9.32,38.01,20.89,87.06,25.85-.1.03-.2.06-.31.09-47.6,13.35-84.12,31.51-81.58,40.56,2.51,8.96,42.48,5.59,89.55-7.48-39,29.42-65.95,59.11-60.37,66.56,5.64,7.51,42.25-10.46,81.79-40.13,1.43-1.07,2.83-2.14,4.23-3.21-.82,1.35-1.63,2.72-2.45,4.09-25.16,42.55-39.01,80.91-30.92,85.7,8.08,4.78,35.03-25.84,60.18-68.39,2.27-3.85,4.45-7.66,6.53-11.41-.55,4.26-1.05,8.62-1.5,13.06-4.95,49.19-1.39,89.81,7.95,90.76,9.21.93,20.61-37.11,25.67-85.35,13.3,46.71,31.12,82.29,40.04,79.78,8.97-2.51,5.6-42.47-7.47-89.55,29.42,39,59.11,65.95,66.56,60.37,7.51-5.64-10.46-42.25-40.13-81.79-1.11-1.47-2.22-2.93-3.32-4.38,1.63,1,3.3,2,4.98,2.99,42.55,25.16,80.91,39.01,85.7,30.92,4.78-8.08-25.84-35.03-68.39-60.18-3.85-2.27-7.66-4.45-11.41-6.53,4.26.55,8.62,1.05,13.06,1.5,49.19,4.95,89.81,1.4,90.76-7.94Zm-178.85-17.93s.02,0,.03,0c.02,0,.04,0,.06,0-.01-.05-.03-.12-.07-.17.02.01.03.01.05.02.01.05.03.1.04.15,0,.07.02.13.04.2-.05-.07-.1-.13-.16-.18Zm.4.46s.06.07.09.09c-.02.04-.03.08-.04.12-.02-.05-.06-.11-.09-.16.02-.02.03-.03.04-.05Zm.46-1c-.04.12-.07.24-.08.36.02-.02.05-.03.08-.04.01,0,.03-.02.05-.01-.05.04-.08.09-.1.15-.02.02-.04.05-.05.06.05.03.1.06.15.08h-.03s-.08,0-.12,0h-.01s-.03,0-.04,0-.01,0-.01,0c.02-.03.04-.07.07-.1-.02,0-.05,0-.07,0h.01s0,0,.02-.02h0s-.07-.05-.09-.07c.04-.02.09-.05.13-.06.01-.08.01-.17.02-.25.04-.04.06-.07.09-.12Z"/><path class="cls-2" d="m215.02,236.08h-.03s-.08,0-.12,0h-.01s-.03,0-.04,0c.01-.03.04-.07.05-.09.05.03.1.06.15.08Z"/><path class="cls-2" d="m214.27,236.2c-.05-.07-.1-.13-.16-.18.01,0,.02,0,.03,0,.02,0,.04,0,.06,0,.02.06.04.13.06.19Z"/><path class="cls-2" d="m214.52,236.48s.06.07.09.09c-.02.04-.03.08-.04.12-.02-.05-.06-.11-.09-.16.02-.02.03-.03.04-.05Z"/><path class="cls-2" d="m214.92,235.94s-.04.05-.05.06c-.02,0-.05,0-.07,0h.01s0,0,.02-.02h0s-.07-.05-.09-.07c.04-.02.09-.05.13-.06.01-.08.01-.17.02-.25.04-.04.06-.07.09-.12-.04.12-.07.24-.08.36.02-.02.05-.03.08-.04.01,0,.03-.02.05-.01-.05.04-.08.09-.1.15Z"/><path class="cls-2" d="m215.02,236.08h-.03s-.08,0-.12,0h-.01s-.03,0-.04,0-.01,0-.01,0c.02-.03.04-.07.07-.1.05.03.1.06.15.08Z"/><path class="cls-2" d="m214.6,236.57s-.03.08-.04.12c-.02-.05-.06-.11-.09-.16.02-.02.03-.03.04-.05.02.04.06.07.09.09Z"/><path class="cls-2" d="m214.23,236c0,.07.02.13.04.2-.04-.06-.09-.12-.12-.19.02,0,.04,0,.06,0-.01-.05-.03-.12-.07-.17.02.01.03.01.05.02.01.05.03.1.04.15Z"/><path class="cls-2" d="m214.92,235.94s-.04.05-.05.06c-.02,0-.05,0-.07,0h.01s0,0,.02-.02h0s-.07-.05-.09-.07c.04-.02.09-.05.13-.06.01-.08.01-.17.02-.25.04-.04.06-.07.09-.12-.04.12-.07.24-.08.36.02-.02.05-.03.08-.04.01,0,.03-.02.05-.01-.05.04-.08.09-.1.15Z"/><path class="cls-2" d="m215.02,236.08h-.03s-.08,0-.12,0h-.01s-.03,0-.04,0-.01,0-.01,0c.02-.03.04-.07.07-.1.05.03.1.06.15.08Z"/><path class="cls-2" d="m214.15,236.01s.04,0,.06,0c-.01-.05-.03-.12-.07-.17.02.01.03.01.05.02.01.05.03.1.04.15,0,.07.02.13.04.2-.05-.07-.1-.13-.16-.18.01,0,.02,0,.03,0Z"/><path class="cls-2" d="m214.52,236.48s.06.07.09.09c-.02.04-.03.08-.04.12-.02-.05-.06-.11-.09-.16.02-.02.03-.03.04-.05Z"/><path class="cls-2" d="m214.92,235.94s-.04.05-.05.06c-.02,0-.05,0-.07,0h.01s0,0,.02-.02h0s-.07-.05-.09-.07c.04-.02.09-.05.13-.06.01,0,.01-.02.02,0,.02-.02.05-.03.08-.04.01,0,.03-.02.05-.01-.05.04-.08.09-.1.15Z"/><path class="cls-2" d="m215.02,236.08h-.03s-.08,0-.12,0h-.01s-.03,0-.04,0-.01,0-.01,0c.02-.03.04-.07.07-.1.05.03.1.06.15.08Z"/><path class="cls-2" d="m214.23,236c0,.07.02.13.04.2-.05-.07-.1-.13-.16-.18.01,0,.02,0,.03,0,.02,0,.04,0,.06,0,0,0,.01,0,.02,0Z"/><path class="cls-2" d="m214.52,236.48s.06.07.09.09c-.02.04-.03.08-.04.12-.02-.05-.06-.11-.09-.16.02-.02.03-.03.04-.05Z"/><path class="cls-2" d="m215.02,236.08h-.03s-.08,0-.12,0h-.01s-.03,0-.04,0-.01,0-.01,0c.02-.03.04-.07.07-.1.05.03.1.06.15.08Z"/><path class="cls-2" d="m215.02,235.79s-.08.09-.1.15c-.02.02-.04.05-.05.06h-.06s0,0,.02-.02h0s-.07-.05-.09-.07c.04-.02.09-.05.13-.06.01-.08.01-.17.02-.25.04-.04.06-.07.09-.12-.04.12-.07.24-.08.36.02-.02.05-.03.08-.04.01,0,.03-.02.05-.01Z"/><path class="cls-2" d="m214.23,236c0,.07.02.13.04.2-.05-.07-.1-.13-.16-.18.01,0,.02,0,.03,0,.02,0,.04,0,.06,0-.01-.05-.03-.12-.07-.17.02.01.03.01.05.02.01.05.03.1.04.15Z"/><path class="cls-2" d="m214.52,236.48s.06.07.09.09c-.02.04-.03.08-.04.12-.02-.05-.06-.11-.09-.16.02-.02.03-.03.04-.05Z"/><path class="cls-2" d="m214.87,235.95v.05s-.06,0-.08,0h.01s0,0,.02-.02h0s-.07-.05-.09-.07c.04-.02.09-.05.13-.06,0,.03,0,.07,0,.1Z"/><path class="cls-2" d="m214.8,236.1s.04-.07.07-.1v.1s-.04,0-.05,0-.01,0-.01,0Z"/><path class="cls-2" d="m214.92,235.94s-.04.05-.05.06l.02-.16s.05-.03.08-.04c.01,0,.03-.02.05-.01-.05.04-.08.09-.1.15Z"/><path class="cls-2" d="m215.02,236.08h-.03s-.08,0-.12,0c0-.03,0-.06,0-.09.05.03.1.06.15.08Z"/><path class="cls-2" d="m215.02,235.79s-.08.09-.1.15c-.02.02-.04.05-.05.06,0-.01-.03-.01-.04-.03-.04-.02-.07-.04-.09-.06.04-.02.09-.05.13-.06.01-.08.01-.17.02-.25.04-.04.06-.07.09-.12-.04.12-.07.24-.08.36.02-.02.05-.03.08-.04.01,0,.03-.02.05-.01Z"/><path class="cls-2" d="m214.23,236c0,.07.02.13.04.2-.05-.07-.1-.13-.16-.18.01,0,.02,0,.03,0,.02,0,.04,0,.06,0-.01-.05-.03-.12-.07-.17.02.01.03.01.05.02.01.05.03.1.04.15Z"/><path class="cls-2" d="m215.02,235.79s-.08.09-.1.15c0,0-.01,0-.02,0,0,0-.01.02-.02,0h0s-.03.03-.04.02c-.04-.02-.07-.04-.09-.06.04-.02.09-.05.13-.06.01-.08.01-.17.02-.25.04-.04.06-.07.09-.12-.04.12-.07.24-.08.36.02-.02.05-.03.08-.04.01,0,.03-.02.05-.01Z"/><circle class="cls-3" cx="217.59" cy="237.01" r="61"/></svg>