<?xml version="1.0" encoding="UTF-8"?><svg id="Layer_1" xmlns="http://www.w3.org/2000/svg" width="1230" height="1606" xmlns:xlink="http://www.w3.org/1999/xlink" viewBox="0 0 1230 1606"><defs><style>.cls-1{fill:#b179b7;}.cls-1,.cls-2,.cls-3,.cls-4,.cls-5,.cls-6{stroke-width:0px;}.cls-2{fill:#c88bd1;}.cls-3{fill:#ffa300;}.cls-7{clip-path:url(#clippath-2);}.cls-4{fill:none;}.cls-8{clip-path:url(#clippath-1);}.cls-9{clip-path:url(#clippath);}.cls-5{fill:url(#radial-gradient);}.cls-6{fill:#cbffa9;}.cls-10{clip-path:url(#clippath-3);}</style><clipPath id="clippath"><rect class="cls-4" x="214" y="411" width="1327.01" height="714.16"/></clipPath><clipPath id="clippath-1"><rect class="cls-4" x="214" y="411" width="1327.01" height="714.16"/></clipPath><clipPath id="clippath-2"><path class="cls-4" d="m553.73,788.08s.06-.05.07-.08c.05.08.12.13.16.18-.03.07-.06.14-.07.22-.04-.1-.1-.21-.16-.31m-.64-1.29s.05.03.09.03c.02.1.05.2.08.28.02.14.04.25.08.37-.1-.13-.2-.24-.29-.35.02-.02.04-.01.06,0,.04-.01.08,0,.11,0-.02-.1-.06-.22-.13-.32m1.3.28v-.02c-.07-.03-.12-.08-.17-.12.08-.05.16-.09.25-.12.02-.15.02-.32.03-.47.07-.07.12-.14.16-.22-.07.22-.12.46-.15.68.04-.03.09-.07.15-.08.02-.02.06-.03.1-.02-.09.08-.16.17-.19.28-.04.03-.07.08-.09.12.09.05.19.1.28.15h-.06c-.08,0-.15,0-.23.02l-.02.02s-.04-.01-.05-.01c0,0-.02,0-.02,0s0,0,0,0c.04-.05.07-.11.11-.18-.04,0-.09-.01-.13,0l.02-.02s.01,0,.02,0c0,0,.01,0,.02-.01m-14.95-171.35c-.08.83-.16,1.67-.24,2.5-.2-.72-.4-1.45-.6-2.17-25.22-89.89-59.52-158.85-76.57-154.06-16.93,4.75-10.58,80.21,14.11,169.11-55.57-73.63-111.63-124.56-125.69-114.02-14.18,10.66,19.75,79.81,75.79,154.47,1.1,1.47,2.23,2.95,3.34,4.41-1.41-.83-2.83-1.67-4.26-2.52-80.36-47.5-152.81-73.64-161.83-58.38-9.04,15.26,48.78,66.15,129.14,113.65,7.27,4.29,14.44,8.4,21.53,12.34-8.04-1.04-16.26-1.99-24.64-2.83-92.87-9.34-169.61-2.64-171.39,15-1.76,17.6,71.78,39.46,164.42,48.83-.2.05-.38.12-.58.16-89.89,25.22-158.87,59.51-154.07,76.59,4.75,16.92,80.22,10.56,169.11-14.13-73.65,55.57-124.56,111.63-114.02,125.7,10.66,14.18,79.79-19.76,154.47-75.79,2.69-2.02,5.35-4.04,7.98-6.07-1.55,2.54-3.08,5.13-4.62,7.73-47.52,80.36-73.66,152.81-58.4,161.84,15.27,9.02,66.16-48.8,113.66-129.16,4.28-7.27,8.4-14.46,12.34-21.54-1.04,8.04-1.99,16.28-2.83,24.66-9.35,92.89-2.62,169.61,15.02,171.4,17.4,1.75,38.93-70.08,48.48-161.19,25.11,88.21,58.77,155.4,75.61,150.66,16.93-4.75,10.58-80.21-14.11-169.11,55.57,73.65,111.63,124.56,125.69,114.02,14.17-10.66-19.76-79.8-75.79-154.47-2.1-2.78-4.18-5.54-6.27-8.26,3.09,1.89,6.23,3.78,9.4,5.64,80.36,47.52,152.81,73.66,161.84,58.4,9.02-15.27-48.8-66.16-129.16-113.66-7.27-4.29-14.46-8.41-21.54-12.34,8.04,1.04,16.28,1.99,24.66,2.83,92.89,9.35,169.61,2.64,171.39-15,1.76-17.6-71.65-39.42-164.17-48.81,88.98-25.16,156.94-59.1,152.19-76.04-4.74-16.94-80.21-10.58-169.11,14.11,73.65-55.57,124.56-111.63,114.02-125.69-10.66-14.18-79.81,19.75-154.46,75.79-1.56,1.17-3.12,2.36-4.66,3.53,1.18-1.95,2.34-3.92,3.52-5.91,47.5-80.36,73.64-152.81,58.38-161.85-15.27-9.02-66.16,48.8-113.66,129.16-4.3,7.26-8.41,14.48-12.34,21.56,1.04-8.04,1.99-16.27,2.83-24.68,9.37-92.88,2.64-169.61-15-171.39-.21-.02-.41-.03-.62-.03-17.53,0-39.01,73.2-48.26,164.99"/></clipPath><radialGradient id="radial-gradient" cx="-262.41" cy="2317.54" fx="-262.41" fy="2317.54" r="1.89" gradientTransform="translate(47293.84 413585.12) scale(178.12 -178.12)" gradientUnits="userSpaceOnUse"><stop offset="0" stop-color="#dfadda"/><stop offset="1" stop-color="#b179b7"/></radialGradient><clipPath id="clippath-3"><rect class="cls-4" x="214" y="411" width="1327.01" height="714.16"/></clipPath></defs><path class="cls-6" d="m332.5,1571.62l-97.38-56.48c-78.84-45.72-127.3-130.04-127.12-221.17l1.91-971.25c.18-91.14,48.97-175.26,127.99-220.67l88.06-50.61,858.16,740.21-851.62,779.98Z"/><g id="Artwork_3"><g class="cls-9"><g class="cls-8"><path class="cls-1" d="m552.5,786.87s.09-.04.13-.06c-.02.02-.02.06-.04.08-.02.06-.04.13-.04.19-.06.02-.11.02-.17.02.04-.04.06-.09.09-.15,0-.02.02-.04.02-.08"/><path class="cls-1" d="m553.65,786.91c-.08.02-.15.04-.21.04-.06-.08-.13-.17-.19-.25-.06-.06-.11-.13-.19-.19-.08-.09-.15-.19-.25-.26.13.06.28.11.42.15-.02.02-.04.02-.06.04.15.04.28.11.42.19-.08.02-.15.04-.25.06.09.09.19.17.3.23"/><path class="cls-1" d="m552.04,787.11s.02.06.04.08c-.02,0,0,.02,0,.02-.02.02-.04.02-.04.04v-.13Z"/><path class="cls-1" d="m552.5,786.87s.09-.04.13-.06c-.02.02-.02.06-.04.08-.02.06-.04.13-.04.19-.02.02-.02.06-.02.08-.06-.02-.13-.02-.19-.02,0,0,.04-.02.04-.04.04-.04.06-.09.09-.15,0-.02.02-.04.02-.08"/><path class="cls-1" d="m553.65,786.91c-.08.02-.15.04-.21.04-.06-.08-.13-.17-.19-.25-.06-.06-.11-.13-.19-.19-.08-.09-.15-.19-.25-.26.13.06.28.11.42.15-.02.02-.04.02-.06.04.15.04.28.11.42.19-.08.02-.15.04-.25.06.09.09.19.17.3.23"/><path class="cls-1" d="m553.59,786.62c-.08.02-.15.04-.25.06-.09-.06-.17-.11-.25-.19-.09-.08-.19-.15-.28-.25.13.06.28.11.42.15-.02.02-.04.02-.06.04.15.04.28.11.42.19"/><path class="cls-1" d="m552.04,787.11s.02.06.04.08c-.02,0,0,.02,0,.02-.02.02-.04.02-.04.04v-.13Z"/><path class="cls-1" d="m552.63,786.81s-.02.06-.04.08c-.02.06-.04.13-.04.19-.02.02-.02.06-.02.08-.06-.02-.13-.02-.19-.02,0,0,.04-.02.04-.04.04-.04.06-.09.09-.15,0-.02.02-.04.02-.08.04-.02.09-.04.13-.06"/><path class="cls-1" d="m552.04,787.11s.02.06.04.08c-.02,0,0,.02,0,.02-.02.02-.04.02-.04.04v-.13Z"/><path class="cls-1" d="m552.5,786.87s.09-.04.13-.06c-.02.02-.02.06-.04.08-.02.06-.04.13-.04.19-.02.02-.02.06-.02.08-.06-.02-.13-.02-.19-.02,0,0,.04-.02.04-.04.04-.04.06-.09.09-.15,0-.02.02-.04.02-.08"/><path class="cls-1" d="m553.65,786.91c-.08.02-.15.04-.21.04-.06-.08-.13-.17-.19-.25-.06-.06-.11-.13-.19-.19-.08-.09-.15-.19-.25-.26.13.06.25.11.36.19.15.04.28.11.42.19-.08.02-.15.04-.25.06.09.09.19.17.3.23"/><path class="cls-1" d="m553.65,786.91c-.08.02-.15.04-.21.04-.06-.08-.13-.17-.19-.25-.06-.06-.11-.13-.19-.19-.08-.09-.15-.19-.25-.26.13.06.28.11.42.15-.02.02-.04.02-.06.04.15.04.28.11.42.19-.08.02-.15.04-.25.06.09.09.19.17.3.23"/><path class="cls-1" d="m552.08,787.19s0,.02,0,.02c-.02.02-.04.02-.04.04v-.13s.02.06.04.08"/><path class="cls-1" d="m553.23,786.4s-.04.02-.06.04c-.02.02-.06.04-.08.06t-.04.02c-.08-.09-.15-.19-.25-.26.13.06.28.11.42.15"/><path class="cls-1" d="m552.04,787.11s.02.06.04.08c-.02,0,0,.02,0,.02-.02.02-.04.02-.04.04v-.13Z"/><path class="cls-1" d="m552.48,786.94s.08-.04.11-.06c-.02.06-.04.13-.04.19-.02.02-.02.06-.02.08-.06-.02-.13-.02-.19-.02,0,0,.04-.02.04-.04.04-.04.06-.09.09-.15"/><path class="cls-1" d="m553.65,786.91c-.08.02-.15.04-.21.04-.06-.08-.13-.17-.19-.25.04,0,.08-.02.09-.02.09.09.19.17.3.23"/><path class="cls-1" d="m552.5,786.87s.09-.04.13-.06c-.02.02-.02.06-.04.08-.02.06-.04.13-.04.19-.02.02-.02.06-.02.08-.06-.02-.13-.02-.19-.02,0,0,.04-.02.04-.04.04-.04.06-.09.09-.15,0-.02.02-.04.02-.08"/><path class="cls-1" d="m553.65,786.91c-.08.02-.15.04-.21.04-.06-.08-.13-.17-.19-.25-.06-.06-.11-.13-.19-.19-.08-.09-.15-.19-.25-.26.13.06.28.11.42.15-.02.02-.04.02-.06.04.15.04.28.11.42.19-.08.02-.15.04-.25.06.09.09.19.17.3.23"/><path class="cls-1" d="m552.08,787.19s0,.02,0,.02c-.02.02-.04.02-.04.04v-.13s.02.06.04.08"/><path class="cls-1" d="m552.08,787.19s0,.02,0,.02c-.02.02-.04.02-.04.04v-.13s.02.06.04.08"/><path class="cls-1" d="m890.09,787.11c0-17.73-75.67-32.1-169.02-32.1-8.46,0-16.75.11-24.87.36,7.46-3.21,15.05-6.59,22.72-10.14,84.72-39.21,147.34-84.04,139.9-100.13-7.44-16.05-81.89,2.57-166.38,41.64.13-.15.28-.28.42-.43,64.53-67.46,106.46-132.06,93.65-144.32-12.71-12.16-74.45,31.71-138.39,98.2,35.11-85.3,50.42-159.49,34.16-166.21-16.37-6.8-58.64,57.6-94.39,143.83-1.28,3.1-2.55,6.19-3.78,9.25.02-2.96.04-5.97.04-8.97,0-93.35-14.37-169.02-32.1-169.02s-32.1,75.67-32.1,169.02c0,8.46.11,16.75.36,24.87-3.21-7.46-6.59-15.05-10.14-22.72-39.21-84.72-84.04-147.34-100.13-139.9-15.86,7.37,2.13,80.15,40.28,163.43-66.51-63.15-129.67-103.85-141.77-91.22-12.16,12.69,31.75,74.45,98.24,138.39-85.32-35.11-159.5-50.42-166.23-34.18-6.8,16.37,57.6,58.64,143.83,94.39,3.21,1.34,6.42,2.64,9.59,3.93-3.63-.06-7.27-.08-10.95-.08-93.35,0-169.02,14.37-169.02,32.1s75.67,32.1,169.02,32.1c8.46,0,16.75-.11,24.87-.36-7.46,3.21-15.05,6.59-22.72,10.14-84.72,39.21-147.34,84.04-139.9,100.13,7.44,16.05,81.75-2.53,166.15-41.55-63.78,66.95-105.02,130.74-92.29,142.92,12.69,12.14,74.43-31.71,138.35-98.2-35.09,85.3-50.39,159.47-34.14,166.21,16.37,6.8,58.64-57.6,94.39-143.85.76-1.83,1.51-3.64,2.25-5.46-.04,2.3-.04,4.61-.04,6.93,0,93.35,14.37,169.02,32.1,169.02s32.1-75.67,32.1-169.02c0-8.46-.11-16.75-.36-24.87,3.21,7.46,6.59,15.05,10.14,22.72,39.21,84.72,84.04,147.34,100.13,139.9,16.09-7.46-2.64-82.17-41.87-166.87-.36-.77-.72-1.55-1.08-2.3.55.51,1.1,1.04,1.64,1.57,67.44,64.53,132.06,106.46,144.32,93.65,12.14-12.71-31.71-74.45-98.2-138.37,85.3,35.09,159.47,50.39,166.21,34.14,6.78-16.37-57.62-58.64-143.85-94.39-1.72-.72-3.44-1.42-5.16-2.12,1.66.02,3.32.02,4.99.02,93.35,0,169.02-14.37,169.02-32.1m-338.04,0s.02.06.04.08c-.02,0,0,.02,0,.02-.02.02-.04.02-.04.04v-.13Zm.34-.02s.06-.09.09-.15c0-.02.02-.04.02-.08.04-.02.09-.04.13-.06-.02.02-.02.06-.04.08-.02.06-.04.13-.04.19-.02.02-.02.06-.02.08-.06-.02-.13-.02-.19-.02,0,0,.04-.02.04-.04m.85-.7s-.04.02-.06.04c.15.04.28.11.42.19-.08.02-.15.04-.25.06.09.09.19.17.3.23-.08.02-.15.04-.21.04-.06-.08-.13-.17-.19-.25-.06-.06-.11-.13-.19-.19-.08-.09-.15-.19-.25-.26.13.06.28.11.42.15"/><path class="cls-1" d="m552.5,786.87s.09-.04.13-.06c-.02.02-.02.06-.04.08-.02.06-.04.13-.04.19-.02.02-.02.06-.02.08-.06-.02-.13-.02-.19-.02,0,0,.04-.02.04-.04.04-.04.06-.09.09-.15,0-.02.02-.04.02-.08"/><path class="cls-1" d="m553.65,786.91c-.08.02-.15.04-.21.04-.06-.08-.13-.17-.19-.25-.06-.06-.11-.13-.19-.19-.08-.09-.15-.19-.25-.26.13.06.28.11.42.15-.02.02-.04.02-.06.04.15.04.28.11.42.19-.08.02-.15.04-.25.06.09.09.19.17.3.23"/><path class="cls-2" d="m553.26,787.1c.02.14.04.25.08.37-.1-.13-.19-.24-.29-.35.02-.02.04-.01.06-.01.04-.01.08,0,.12,0-.02-.1-.06-.22-.13-.32.04.02.05.03.09.03.02.1.05.2.07.28"/><path class="cls-2" d="m553.8,787.99c.05.08.12.13.17.18-.03.07-.06.15-.07.22-.04-.1-.1-.21-.17-.31.04-.03.06-.05.07-.09"/><path class="cls-2" d="m554.39,787.07s.06,0,.07.03c-.04,0-.09-.02-.13,0l.02-.02s.02,0,.04-.01"/><path class="cls-2" d="m554.69,787.24c-.08,0-.15.02-.23.02l-.02.02s-.06,0-.08-.01c-.02,0-.02.02-.02.02.05-.05.07-.12.12-.19.09.05.16.1.23.15"/><path class="cls-2" d="m553.26,787.1c.02.14.04.25.08.37-.1-.13-.19-.24-.29-.35.02-.02.04-.01.06-.01.04-.01.08,0,.12,0-.02-.1-.06-.22-.13-.32.04.02.05.03.09.03.02.1.05.2.07.28"/><path class="cls-2" d="m554.65,786.72c-.03.09-.08.18-.13.27,0,.04-.03.07-.05.11-.04,0-.09-.01-.13,0l.02-.02s.02,0,.04-.01v-.02c-.07-.03-.12-.07-.17-.12.08-.05.17-.09.25-.12.02-.15.03-.32.03-.47.07-.07.12-.14.17-.22-.07.22-.12.46-.15.68.04-.03.08-.06.14-.08"/></g><g class="cls-7"><rect class="cls-5" x="216.34" y="450.72" width="676.22" height="674.48"/></g><g class="cls-10"><path class="cls-2" d="m554.75,787.25h-.06c-.08,0-.15,0-.23.02l-.02.02s-.06,0-.08-.01c.03-.05.08-.12.1-.18.09.05.19.1.28.15"/><path class="cls-2" d="m553.34,787.47c-.1-.13-.19-.24-.29-.35.02-.02.04-.01.06-.01.04-.01.08,0,.11,0,.04.12.08.24.12.36"/><path class="cls-2" d="m553.8,787.99c.05.08.12.13.17.18-.03.07-.06.15-.07.22-.04-.1-.1-.21-.17-.31.04-.03.06-.05.07-.09"/><path class="cls-2" d="m554.56,786.98s-.07.09-.09.12c-.04,0-.09-.01-.13,0l.02-.02s.02,0,.04-.01v-.02c-.07-.03-.12-.07-.17-.12.08-.05.16-.09.25-.12.02-.15.03-.32.03-.47.07-.07.11-.14.16-.22-.07.22-.12.46-.15.68.04-.03.08-.06.14-.07.02-.02.06-.03.1-.02-.09.08-.16.17-.19.28"/><path class="cls-2" d="m554.75,787.25h-.06c-.08,0-.15,0-.23.02l-.02.02s-.06,0-.08-.01c-.02,0-.02.02-.02.02.05-.05.08-.12.12-.19.09.05.19.1.28.15"/><path class="cls-2" d="m553.97,788.17c-.03.07-.06.14-.07.22-.04-.1-.1-.21-.16-.31.04-.03.06-.05.07-.08.05.08.12.13.17.18"/><path class="cls-2" d="m553.26,787.1c.02.14.04.25.08.37-.08-.11-.18-.23-.23-.36.04-.01.08,0,.12,0-.02-.1-.06-.22-.13-.32.04.02.05.03.09.03.02.1.05.2.07.28"/><path class="cls-2" d="m554.56,786.98s-.07.09-.09.12c-.04,0-.09-.01-.13,0l.02-.02s.02,0,.04-.01v-.02c-.07-.03-.12-.07-.17-.12.08-.05.16-.09.25-.12.02-.15.03-.32.03-.47.07-.07.11-.14.16-.22-.07.22-.12.46-.15.68.04-.03.08-.06.14-.07.02-.02.06-.03.1-.02-.09.08-.16.17-.19.28"/><path class="cls-2" d="m554.75,787.25h-.06c-.08,0-.15,0-.23.02l-.02.02s-.06,0-.08-.01c-.02,0-.02.02-.02.02.05-.05.08-.12.12-.19.09.05.19.1.28.15"/><path class="cls-2" d="m553.11,787.11s.08,0,.12,0c-.02-.1-.06-.22-.13-.32.04.02.05.03.09.03.02.1.05.2.07.28.02.14.04.25.08.37-.1-.13-.19-.24-.29-.35.02-.02.04-.01.06-.01"/><path class="cls-2" d="m553.8,787.99c.05.08.12.13.17.18-.03.07-.06.15-.07.22-.04-.1-.1-.21-.17-.31.04-.03.06-.05.07-.09"/><path class="cls-2" d="m554.56,786.98s-.07.09-.09.12c-.04,0-.09-.01-.13,0l.02-.02s.02,0,.04-.01v-.02c-.07-.03-.12-.07-.17-.12.08-.05.16-.09.25-.12.02-.02.02-.03.04-.01.04-.03.08-.06.14-.07.02-.02.06-.03.1-.02-.09.08-.16.17-.19.28"/><path class="cls-2" d="m554.75,787.25h-.06c-.08,0-.15,0-.23.02l-.02.02s-.06,0-.08-.01c-.02,0-.02.02-.02.02.05-.05.08-.12.12-.19.09.05.19.1.28.15"/><path class="cls-2" d="m553.26,787.1c.02.14.04.25.08.37-.1-.13-.19-.24-.29-.35.02-.02.04-.01.06-.01.04-.01.08,0,.12,0,0,0,.02-.02.04-.01"/><path class="cls-2" d="m553.8,787.99c.05.08.12.13.17.18-.03.07-.06.15-.07.22-.04-.1-.1-.21-.17-.31.04-.03.06-.05.07-.09"/><path class="cls-2" d="m554.75,787.25h-.06c-.08,0-.15,0-.23.02l-.02.02s-.06,0-.08-.01c-.02,0-.02.02-.02.02.05-.05.08-.12.12-.19.09.05.19.1.28.15"/><path class="cls-2" d="m554.75,786.7c-.09.08-.16.17-.19.28-.04.03-.07.08-.09.12l-.11-.02s.02,0,.04-.01v-.02c-.07-.03-.12-.07-.17-.12.08-.05.17-.09.25-.12.02-.15.03-.32.03-.47.07-.07.12-.14.17-.22-.07.22-.12.46-.16.68.04-.03.09-.06.15-.07.02-.02.06-.03.1-.02"/><path class="cls-2" d="m553.26,787.1c.02.14.04.25.08.37-.1-.13-.19-.24-.29-.35.02-.02.04-.01.06-.01.04-.01.08,0,.12,0-.02-.1-.06-.22-.13-.32.04.02.05.03.09.03.02.1.05.2.07.28"/><path class="cls-2" d="m553.8,787.99c.05.08.12.13.17.18-.03.07-.06.15-.07.22-.04-.1-.1-.21-.17-.31.04-.03.06-.05.07-.09"/><path class="cls-2" d="m554.48,787v.09c-.05,0-.11-.01-.15,0l.02-.02s.02,0,.04-.01v-.02c-.07-.03-.12-.08-.17-.12.08-.05.17-.09.25-.12.01.06.02.14.01.19"/><path class="cls-2" d="m554.34,787.29c.05-.05.08-.12.12-.19l-.03.19s-.06,0-.08,0c-.02,0-.02.02-.02.02"/><path class="cls-2" d="m554.56,786.98s-.07.09-.09.12l.04-.3s.08-.06.14-.07c.02-.02.06-.03.1-.02-.09.08-.16.17-.19.28"/><path class="cls-2" d="m554.75,787.25h-.06c-.08,0-.15,0-.23.02,0-.06,0-.11,0-.17.09.05.19.1.28.15"/><path class="cls-2" d="m554.75,786.7c-.09.08-.16.17-.19.28-.04.03-.07.08-.09.12-.02-.02-.05-.03-.07-.05-.07-.03-.12-.07-.17-.12.08-.05.17-.09.25-.12.02-.15.03-.32.03-.47.07-.07.12-.14.17-.22-.07.22-.12.46-.16.68.04-.03.09-.06.15-.07.02-.02.06-.03.1-.02"/><path class="cls-2" d="m553.26,787.1c.02.14.04.25.08.37-.1-.13-.19-.24-.29-.35.02-.02.04-.01.06-.01.04-.01.08,0,.12,0-.02-.1-.06-.22-.13-.32.04.02.05.03.09.03.02.1.05.2.07.28"/><path class="cls-2" d="m554.75,786.7c-.09.08-.16.17-.19.28,0,.02-.02.02-.04.01,0,0-.02.03-.04.01v.02s-.06.03-.08.03c-.07-.03-.12-.07-.17-.12.08-.05.17-.09.25-.12.02-.15.03-.32.03-.47.07-.07.12-.14.17-.22-.07.22-.12.46-.16.68.04-.03.09-.06.15-.07.02-.02.06-.03.1-.02"/><path class="cls-3" d="m674.8,789c0,63.62-51.58,115.2-115.2,115.2s-115.2-51.58-115.2-115.2,51.58-115.2,115.2-115.2,115.2,51.58,115.2,115.2"/></g></g></g></svg>