<?xml version="1.0" encoding="UTF-8"?><svg id="Layer_1" xmlns="http://www.w3.org/2000/svg" width="1846" height="1789" xmlns:xlink="http://www.w3.org/1999/xlink" viewBox="0 0 1846 1789"><defs><style>.cls-1{fill:none;}.cls-1,.cls-2,.cls-3{stroke-width:0px;}.cls-4{clip-path:url(#clippath-1);}.cls-5{clip-path:url(#clippath);}.cls-2{fill:url(#radial-gradient);}.cls-3{fill:#c4addb;}</style><clipPath id="clippath"><rect class="cls-1" x="572" y="513" width="697.22" height="795.53"/></clipPath><clipPath id="clippath-1"><polygon class="cls-1" points="914.1 513 914.1 610.44 864.35 534.34 853.96 541.12 914.1 633.11 914.1 674.98 862.56 596.11 852.17 602.92 914.1 697.63 914.1 889.89 858.32 785.36 865.61 712.92 857.52 712.13 851.47 772.5 840.12 751.27 847.65 676.76 839.56 675.94 833.27 738.43 802.07 679.97 794.94 683.77 824.93 739.95 772.83 711.38 768.91 718.51 831.89 753.02 844.78 777.16 790.79 747.54 786.9 754.67 851.75 790.2 908.18 895.97 741.79 791.49 696.42 689.73 685.08 694.82 722.92 779.63 691.72 760.05 645.05 655.37 633.7 660.42 672.85 748.2 586.96 694.28 580.39 704.76 662.92 756.58 572 758.24 572.23 770.66 682.12 768.63 717.58 790.91 623.38 792.61 623.61 805.02 736.76 802.93 905.55 908.92 780.98 923.41 716.23 890.14 712.52 897.39 766.49 925.11 742.61 927.89 675.99 893.66 672.28 900.88 728.14 929.59 662.31 937.25 663.27 945.27 726.48 937.91 680.86 975.96 686.06 982.18 741.21 936.21 768.38 933.04 721.1 972.44 726.27 978.66 783.08 931.31 901.4 917.57 744.05 1033.67 632.74 1038.71 633.33 1051.13 726.11 1046.93 696.5 1068.79 581.97 1073.96 582.53 1086.38 678.55 1082.02 596.95 1142.25 604.32 1152.2 682.7 1094.35 651.01 1179.56 662.66 1183.89 700.94 1080.88 734.61 1056.02 701.78 1144.31 713.41 1148.64 752.86 1042.55 905.43 929.96 847.67 1030.9 782.43 1063.24 786.04 1070.49 840.42 1043.53 828.47 1064.41 761.36 1097.68 764.97 1104.95 821.24 1077.06 788.32 1134.56 795.34 1138.57 826.95 1083.33 830.47 1142.63 838.56 1142.16 834.32 1070.47 847.9 1046.74 851.54 1108.19 859.64 1107.7 855.26 1033.88 914.33 930.69 914.33 1125.71 852.28 1218.26 862.61 1225.16 914.33 1148.01 914.33 1184.82 850.49 1280.03 860.81 1286.95 914.33 1207.12 914.33 1308.53 926.7 1308.53 926.7 1211.11 976.45 1287.21 986.84 1280.4 926.7 1188.41 926.7 1146.56 978.25 1225.42 988.64 1218.63 926.7 1123.89 926.7 930.33 983.58 1036.91 976.29 1109.35 984.35 1110.15 990.43 1049.75 1001.75 1070.98 994.25 1145.49 1002.34 1146.33 1008.63 1083.84 1039.83 1142.3 1046.96 1138.48 1016.99 1082.32 1069.07 1110.87 1072.96 1103.76 1010 1069.23 997.12 1045.11 1051.08 1074.71 1055 1067.6 990.15 1032.07 933.69 926.28 1099.43 1030.37 1144.82 1132.12 1156.14 1127.04 1118.3 1042.22 1149.48 1061.8 1196.17 1166.49 1207.52 1161.43 1168.38 1073.66 1254.26 1127.57 1260.83 1117.09 1178.32 1065.29 1269.22 1063.61 1268.99 1051.2 1159.1 1053.22 1123.66 1030.97 1217.84 1029.25 1217.63 1016.83 1104.46 1018.92 936.26 913.33 1060.89 898.83 1125.64 932.11 1129.37 924.88 1075.39 897.13 1099.29 894.36 1165.88 928.59 1169.61 921.36 1113.76 892.68 1179.56 884.99 1178.63 876.98 1115.37 884.34 1161.01 846.29 1155.84 840.07 1100.67 886.04 1073.5 889.21 1120.77 849.81 1115.6 843.59 1058.79 890.93 939.05 904.87 1097.15 788.18 1208.45 783.15 1207.9 770.73 1115.09 774.92 1144.73 753.07 1259.22 747.89 1258.67 735.47 1162.67 739.83 1244.24 679.6 1236.9 669.65 1158.5 727.53 1190.19 642.29 1178.56 637.96 1140.25 740.97 1106.56 765.84 1139.41 677.55 1127.79 673.22 1088.34 779.3 936.79 891.14 994.09 791.04 1059.31 758.73 1055.72 751.43 1001.34 778.39 1013.29 757.51 1080.39 724.27 1076.78 717 1020.54 744.89 1053.43 687.38 1046.42 683.35 1014.8 738.62 1011.28 679.32 1003.2 679.78 1007.44 751.48 993.83 775.22 990.22 713.76 982.11 714.25 986.49 788.06 926.47 892.91 926.47 695.81 988.52 603.29 978.2 596.37 926.47 673.52 926.47 636.7 990.31 541.5 979.99 534.58 926.47 614.4 926.47 513 914.1 513"/></clipPath><radialGradient id="radial-gradient" cx="-3471.7" cy="2457.39" fx="-3471.7" fy="2457.39" r="2.05" gradientTransform="translate(633411.28 448609.41) scale(182.18 -182.18)" gradientUnits="userSpaceOnUse"><stop offset="0" stop-color="#aad3ff"/><stop offset="1" stop-color="#417691"/></radialGradient></defs><path class="cls-3" d="m46.5,1021.62l742.79,430.8c78.84,45.72,176.08,45.92,255.1.5l754.97-433.9L898.12,241.64,46.5,1021.62Z"/><g id="Artwork_4"><g class="cls-5"><g class="cls-4"><rect class="cls-2" x="572" y="513" width="697.22" height="795.53"/></g></g></g></svg>