<?xml version="1.0" encoding="UTF-8"?><svg id="Layer_1" xmlns="http://www.w3.org/2000/svg" width="632.5" height="512" xmlns:xlink="http://www.w3.org/1999/xlink" viewBox="0 0 632.5 512"><defs><style>.cls-1{fill:url(#radial-gradient);stroke-width:0px;}</style><radialGradient id="radial-gradient" cx="321.07" cy="245.13" fx="321.07" fy="245.13" r="182.18" gradientUnits="userSpaceOnUse"><stop offset="0" stop-color="#aad3ff"/><stop offset="1" stop-color="#417691"/></radialGradient></defs><polygon class="cls-1" points="446.61 320.41 486.8 345.64 483.6 350.75 441.76 324.48 460.83 367.24 455.3 369.7 432.56 318.71 417.37 309.17 435.8 350.49 430.29 352.96 408.17 303.39 327.44 252.69 354.94 304.22 386.53 321.53 384.62 324.99 358.34 310.58 364.61 322.33 395.28 339.15 393.39 342.61 368.02 328.7 382.61 356.06 379.14 357.92 363.94 329.44 360.88 359.88 356.94 359.48 360.59 323.18 355.08 312.84 352.11 342.26 348.19 341.87 351.74 306.58 324.03 254.67 324.03 348.95 354.2 395.1 349.14 398.41 324.03 360 324.03 380.38 353.33 425.19 348.27 428.51 324.03 391.44 324.03 438.89 318.01 438.89 318.01 389.5 291.94 428.38 286.91 425.01 318.01 378.64 318.01 360.7 292.81 398.28 287.78 394.92 318.01 349.84 318.01 254.84 289.23 305.11 291.37 341.07 287.42 341.3 285.65 311.37 279.03 322.93 281.1 357.85 277.16 358.08 275.44 329.19 260.04 356.1 256.62 354.15 272.66 326.14 245.25 339.73 243.49 336.18 276.18 319.98 282 309.81 255.51 322.94 253.75 319.41 285.53 303.65 313.67 254.48 239.35 309.33 220.13 361.01 214.47 358.9 230.46 315.89 214.06 328 195.41 378.18 189.74 376.07 205.17 334.56 166.99 362.74 163.4 357.9 203.15 328.56 156.38 330.68 156.1 324.63 211.89 322.11 226.32 311.46 181.12 313.51 180.84 307.46 235.06 305.01 311.71 248.45 254.07 255.14 226.4 278.21 223.88 275.18 246.91 255.98 233.67 257.53 206.81 279.92 204.28 276.89 226.5 258.36 195.71 261.94 195.24 258.04 227.31 254.3 200.1 240.32 201.9 236.8 234.35 253.47 245.99 252.12 219.7 238.62 221.51 235.09 253.05 251.3 313.73 244.24 231.51 192.6 176.39 193.62 176.27 187.57 222.16 186.75 204.89 175.89 151.36 176.88 151.25 170.83 195.54 170.03 155.33 144.78 158.53 139.68 200.37 165.94 181.3 123.18 186.83 120.72 209.57 171.72 224.76 181.25 206.33 139.94 211.86 137.46 233.96 187.03 315.01 237.92 287.52 186.4 255.93 169.1 257.83 165.62 284.13 180.05 277.85 168.29 247.17 151.48 249.08 148.01 274.46 161.92 259.85 134.56 263.32 132.71 278.52 161.18 281.58 130.74 285.52 131.14 281.86 167.44 287.38 177.78 290.33 148.37 294.27 148.76 290.72 184.04 317.89 234.96 317.89 141.31 287.72 95.17 292.79 91.86 317.89 130.28 317.89 109.88 288.6 65.07 293.66 61.77 317.89 98.84 317.89 51.37 323.92 51.37 323.92 100.77 349.99 61.88 355.02 65.25 323.92 111.63 323.92 129.56 349.12 91.98 354.15 95.35 323.92 140.42 323.92 236.44 353.16 185.36 351.03 149.4 354.98 149.16 356.73 179.11 363.36 167.54 361.3 132.62 365.24 132.39 366.95 161.27 382.35 134.35 385.77 136.32 369.74 164.33 397.14 150.74 398.9 154.28 366.21 170.48 360.39 180.65 386.88 167.52 388.63 171.07 356.86 186.81 328.95 235.57 402.77 181.09 421.99 129.41 427.65 131.53 411.65 174.53 428.06 162.42 446.72 112.24 452.38 114.35 436.95 155.87 475.14 127.68 478.72 132.52 438.98 161.87 485.74 159.74 486.02 165.79 430.24 168.31 415.8 178.96 461.01 176.92 461.28 182.97 407.06 185.42 330.05 242.26 388.38 235.47 416.05 212.41 418.57 215.44 395.54 234.63 408.78 233.09 435.65 210.69 438.17 213.73 415.94 232.26 446.75 228.67 447.21 232.58 415.16 236.32 442.36 250.3 440.55 253.81 408.11 237.14 396.46 238.49 422.76 252.01 420.94 255.53 389.4 239.32 328.69 246.38 410.63 297.82 465.76 296.8 465.86 302.85 419.98 303.69 437.24 314.53 490.77 313.54 490.89 319.59 446.61 320.41"/></svg>