<?xml version="1.0" encoding="UTF-8"?><svg id="Layer_1" xmlns="http://www.w3.org/2000/svg" width="1752.87" height="1245.21" xmlns:xlink="http://www.w3.org/1999/xlink" viewBox="0 0 1752.87 1245.21"><defs><style>.cls-1{fill:none;}.cls-1,.cls-2,.cls-3{stroke-width:0px;}.cls-4{clip-path:url(#clippath-1);}.cls-5{clip-path:url(#clippath);}.cls-2{fill:url(#radial-gradient);}.cls-3{fill:#c4addb;}</style><clipPath id="clippath"><rect class="cls-1" x="525.5" y="271.36" width="697.22" height="795.53"/></clipPath><clipPath id="clippath-1"><polygon class="cls-1" points="867.6 271.36 867.6 368.8 817.85 292.7 807.46 299.48 867.6 391.47 867.6 433.34 816.06 354.47 805.67 361.27 867.6 455.99 867.6 648.24 811.82 543.71 819.11 471.27 811.03 470.48 804.97 530.85 793.62 509.63 801.15 435.11 793.06 434.29 786.77 496.79 755.57 438.33 748.44 442.12 778.43 498.3 726.33 469.73 722.42 476.87 785.4 511.37 798.28 535.51 744.3 505.9 740.4 513.03 805.25 548.56 861.68 654.32 695.3 549.84 649.93 448.09 638.58 453.17 676.42 537.98 645.22 518.41 598.55 413.72 587.2 418.78 626.35 506.55 540.46 452.63 533.89 463.12 616.42 514.94 525.5 516.59 525.74 529.01 635.62 526.98 671.08 549.26 576.88 550.96 577.11 563.38 690.26 561.28 859.05 667.28 734.49 681.77 669.73 648.5 666.03 655.74 719.99 683.47 696.11 686.24 629.49 652.02 625.79 659.24 681.64 687.94 615.82 695.61 616.77 703.63 679.99 696.26 634.36 734.31 639.56 740.53 694.71 694.56 721.88 691.39 674.6 730.8 679.78 737.02 736.58 689.67 854.9 675.92 697.56 792.03 586.25 797.06 586.83 809.48 679.61 805.29 650 827.14 535.48 832.31 536.04 844.73 632.06 840.38 550.46 900.61 557.82 910.56 636.21 852.7 604.52 937.91 616.17 942.25 654.45 839.23 688.12 814.37 655.29 902.66 666.92 906.99 706.36 800.91 858.94 688.32 801.17 789.26 735.93 821.6 739.54 828.84 793.93 801.89 781.97 822.76 714.87 856.03 718.48 863.31 774.75 835.41 741.83 892.92 748.84 896.93 780.46 841.68 783.98 900.98 792.06 900.52 787.82 828.82 801.41 805.1 805.04 866.54 813.15 866.05 808.77 792.24 867.83 689.04 867.83 884.07 805.79 976.62 816.11 983.51 867.83 906.36 867.83 943.18 803.99 1038.38 814.32 1045.31 867.83 965.48 867.83 1066.88 880.21 1066.88 880.21 969.46 929.96 1045.56 940.35 1038.76 880.21 946.77 880.21 904.92 931.75 983.77 942.14 976.99 880.21 882.25 880.21 688.69 937.08 795.27 929.79 867.71 937.85 868.5 943.93 808.11 955.26 829.33 947.76 903.85 955.84 904.69 962.13 842.19 993.33 900.66 1000.46 896.83 970.5 840.68 1022.57 869.22 1026.47 862.12 963.51 827.58 950.62 803.47 1004.59 833.06 1008.5 825.95 943.65 790.42 887.2 684.64 1052.93 788.72 1098.32 890.47 1109.65 885.39 1071.81 800.58 1102.98 820.15 1149.68 924.84 1161.03 919.79 1121.88 832.01 1207.77 885.93 1214.34 875.44 1131.83 823.65 1222.72 821.97 1222.49 809.55 1112.61 811.58 1077.17 789.33 1171.35 787.6 1171.14 775.18 1057.97 777.28 889.76 671.68 1014.39 657.19 1079.15 690.46 1082.88 683.24 1028.89 655.49 1052.79 652.71 1119.39 686.94 1123.12 679.72 1067.27 651.04 1133.06 643.35 1132.13 635.33 1068.87 642.69 1114.52 604.65 1109.34 598.42 1054.17 644.4 1027 647.57 1074.28 608.16 1069.1 601.94 1012.3 649.29 892.56 663.22 1050.65 546.53 1161.96 541.5 1161.4 529.08 1068.59 533.28 1098.23 511.42 1212.73 506.25 1212.17 493.83 1116.17 498.19 1197.75 437.95 1190.41 428 1112 485.88 1143.69 400.65 1132.06 396.32 1093.76 499.33 1060.06 524.19 1092.92 435.9 1081.29 431.57 1041.84 537.66 890.3 649.5 947.59 549.4 1012.81 517.08 1009.22 509.79 954.84 536.75 966.79 515.87 1033.9 482.62 1030.29 475.35 974.04 503.24 1006.94 445.74 999.93 441.71 968.31 496.97 964.79 437.67 956.7 438.14 960.94 509.84 947.34 533.58 943.73 472.11 935.61 472.6 940 546.42 879.97 651.27 879.97 454.17 942.03 361.65 931.7 354.73 879.97 431.87 879.97 395.06 943.82 299.85 933.5 292.93 879.97 372.76 879.97 271.36 867.6 271.36"/></clipPath><radialGradient id="radial-gradient" cx="-3518.19" cy="2215.74" fx="-3518.19" fy="2215.74" r="2.05" gradientTransform="translate(641835.64 404343.74) scale(182.18 -182.18)" gradientUnits="userSpaceOnUse"><stop offset="0" stop-color="#aad3ff"/><stop offset="1" stop-color="#417691"/></radialGradient></defs><path class="cls-3" d="m0,779.98l742.79,430.8c78.84,45.72,176.08,45.92,255.1.5l754.97-433.9L851.62,0,0,779.98Z"/><g id="Artwork_4"><g class="cls-5"><g class="cls-4"><rect class="cls-2" x="525.5" y="271.36" width="697.22" height="795.53"/></g></g></g></svg>