<?xml version="1.0" encoding="UTF-8"?><svg id="Layer_1" xmlns="http://www.w3.org/2000/svg" width="920" height="794" xmlns:xlink="http://www.w3.org/1999/xlink" viewBox="0 0 920 794"><defs><style>.cls-1{fill:url(#radial-gradient);}.cls-1,.cls-2{stroke-width:0px;}.cls-2{fill:#c4addb;}</style><radialGradient id="radial-gradient" cx="436.61" cy="370.76" fx="436.61" fy="370.76" r="182.18" gradientUnits="userSpaceOnUse"><stop offset="0" stop-color="#aad3ff"/><stop offset="1" stop-color="#417691"/></radialGradient></defs><rect class="cls-2" x="220" y="162.34" width="434" height="417.34" rx="93.11" ry="93.11"/><polygon class="cls-1" points="562.15 446.04 602.34 471.27 599.14 476.38 557.31 450.11 576.37 492.87 570.85 495.33 548.1 444.34 532.91 434.8 551.35 476.12 545.83 478.59 523.72 429.02 442.98 378.32 470.49 429.85 502.07 447.16 500.17 450.62 473.88 436.21 480.16 447.96 510.83 464.78 508.93 468.24 483.56 454.34 498.16 481.69 494.69 483.55 479.49 455.07 476.42 485.52 472.48 485.11 476.14 448.81 470.62 438.47 467.66 467.89 463.73 467.5 467.29 432.21 439.58 380.3 439.58 474.59 469.75 520.74 464.69 524.04 439.58 485.63 439.58 506.01 468.87 550.83 463.81 554.14 439.58 517.07 439.58 564.53 433.55 564.53 433.55 515.13 407.48 554.02 402.45 550.64 433.55 504.27 433.55 486.33 408.35 523.91 403.33 520.55 433.55 475.47 433.55 380.47 404.78 430.74 406.91 466.7 402.96 466.94 401.19 437 394.58 448.56 396.64 483.48 392.7 483.71 390.99 454.82 375.59 481.74 372.17 479.78 388.21 451.77 360.8 465.36 359.04 461.82 391.73 445.61 397.55 435.44 371.06 448.57 369.3 445.04 401.08 429.29 429.22 380.12 354.89 434.96 335.68 486.64 330.01 484.53 346.01 441.52 329.61 453.63 310.96 503.81 305.28 501.7 320.72 460.19 282.54 488.38 278.95 483.53 318.7 454.19 271.92 456.31 271.65 450.26 327.44 447.74 341.86 437.09 296.67 439.14 296.38 433.09 350.6 430.64 427.25 374.08 369.62 380.77 341.94 403.84 339.42 400.81 362.45 381.61 349.22 383.16 322.35 405.55 319.82 402.52 342.05 383.99 311.25 387.57 310.79 383.67 342.85 379.93 315.64 365.95 317.45 362.43 349.9 379.11 361.53 377.75 335.25 364.25 337.05 360.72 368.59 376.93 429.27 369.87 347.05 318.23 291.93 319.25 291.82 313.21 337.71 312.38 320.43 301.53 266.91 302.51 266.79 296.46 311.08 295.66 270.88 270.41 274.08 265.31 315.92 291.57 296.85 248.81 302.38 246.35 325.11 297.35 340.31 306.88 321.88 265.57 327.4 263.09 349.5 312.66 430.56 363.56 403.07 312.04 371.48 294.73 373.37 291.25 399.67 305.68 393.39 293.92 362.71 277.11 364.62 273.64 390 287.55 375.39 260.19 378.87 258.34 394.06 286.82 397.13 256.37 401.07 256.77 397.4 293.07 402.93 303.41 405.88 274 409.82 274.39 406.27 309.68 433.44 360.59 433.44 266.94 403.27 220.8 408.33 217.49 433.44 255.91 433.44 235.51 404.14 190.7 409.21 187.4 433.44 224.47 433.44 177 439.47 177 439.47 226.4 465.54 187.51 470.57 190.88 439.47 237.26 439.47 255.19 464.66 217.61 469.69 220.98 439.47 266.06 439.47 362.07 468.7 310.99 466.57 275.03 470.52 274.8 472.28 304.74 478.91 293.17 476.84 258.25 480.78 258.02 482.5 286.91 497.9 259.98 501.31 261.95 485.29 289.96 512.69 276.37 514.45 279.91 481.76 296.11 475.93 306.28 502.43 293.15 504.17 296.7 472.4 312.44 444.49 361.21 518.32 306.72 537.53 255.05 543.2 257.16 527.19 300.16 543.61 288.05 562.27 237.87 567.93 239.98 552.49 281.5 590.69 253.31 594.26 258.16 554.53 287.5 601.29 285.37 601.56 291.42 545.79 293.94 531.35 304.59 576.56 302.55 576.83 308.6 522.61 311.05 445.6 367.89 503.93 361.1 531.6 338.04 534.12 341.07 511.09 360.26 524.32 358.72 551.2 336.33 553.72 339.36 531.48 357.89 562.3 354.3 562.75 358.21 530.7 361.96 557.91 375.93 556.09 379.45 523.65 362.77 512.01 364.12 538.31 377.64 536.49 381.16 504.95 364.95 444.23 372.01 526.17 423.45 581.3 422.43 581.4 428.48 535.52 429.32 552.79 440.16 606.32 439.17 606.43 445.22 562.15 446.04"/></svg>