<?xml version="1.0" encoding="UTF-8"?><svg id="Layer_1" xmlns="http://www.w3.org/2000/svg" width="871" height="1000" xmlns:xlink="http://www.w3.org/1999/xlink" viewBox="0 0 871 1000"><defs><style>.cls-1{fill:none;}.cls-1,.cls-2,.cls-3{stroke-width:0px;}.cls-4{clip-path:url(#clippath-1);}.cls-5{clip-path:url(#clippath);}.cls-2{fill:url(#radial-gradient);}.cls-3{fill:#c4addb;}</style><clipPath id="clippath"><rect class="cls-1" x="281" y="261" width="339.64" height="387.53"/></clipPath><clipPath id="clippath-1"><polygon class="cls-1" points="447.65 261 447.65 308.47 423.41 271.4 418.35 274.7 447.65 319.51 447.65 339.91 422.54 301.49 417.48 304.8 447.65 350.94 447.65 444.59 420.47 393.68 424.03 358.39 420.09 358 417.14 387.41 411.61 377.07 415.28 340.77 411.34 340.37 408.27 370.82 393.07 342.34 389.6 344.19 404.21 371.55 378.83 357.64 376.92 361.11 407.6 377.92 413.88 389.68 387.58 375.25 385.68 378.73 417.27 396.04 444.76 447.56 363.71 396.66 341.61 347.09 336.08 349.57 354.52 390.88 339.32 381.35 316.58 330.35 311.06 332.81 330.12 375.57 288.29 349.31 285.09 354.41 325.29 379.66 281 380.46 281.11 386.51 334.64 385.52 351.92 396.38 306.03 397.21 306.14 403.25 361.26 402.23 443.48 453.87 382.8 460.93 351.26 444.72 349.45 448.25 375.74 461.75 364.11 463.1 331.66 446.43 329.85 449.95 357.06 463.93 324.99 467.67 325.46 471.57 356.25 467.99 334.03 486.52 336.56 489.55 363.43 467.16 376.66 465.61 353.63 484.81 356.15 487.84 383.82 464.77 441.46 458.08 364.81 514.64 310.59 517.09 310.88 523.14 356.07 521.1 341.65 531.74 285.86 534.26 286.13 540.31 332.91 538.19 293.16 567.53 296.74 572.38 334.93 544.19 319.49 585.7 325.17 587.81 343.81 537.63 360.21 525.52 344.22 568.53 349.89 570.64 369.1 518.96 443.43 464.12 415.29 513.29 383.51 529.04 385.26 532.57 411.76 519.44 405.93 529.61 373.25 545.82 375 549.36 402.42 535.77 386.38 563.78 389.79 565.74 405.2 538.82 406.91 567.71 410.85 567.48 408.78 532.56 415.4 521 417.17 550.93 421.12 550.7 418.99 514.74 447.76 464.47 447.76 559.47 417.54 604.56 422.56 607.91 447.76 570.33 447.76 588.27 416.66 634.64 421.69 638.02 447.76 599.13 447.76 648.53 453.79 648.53 453.79 601.07 478.02 638.14 483.08 634.83 453.79 590.01 453.79 569.63 478.9 608.04 483.96 604.74 453.79 558.58 453.79 464.3 481.49 516.21 477.94 551.5 481.87 551.89 484.83 522.47 490.35 532.81 486.69 569.11 490.63 569.52 493.7 539.07 508.89 567.55 512.37 565.69 497.77 538.34 523.14 552.24 525.03 548.78 494.37 531.96 488.09 520.21 514.38 534.62 516.28 531.16 484.69 513.85 457.19 462.32 537.93 513.02 560.04 562.59 565.55 560.12 547.12 518.8 562.31 528.34 585.05 579.33 590.58 576.87 571.51 534.11 613.35 560.38 616.55 555.27 576.36 530.04 620.64 529.22 620.52 523.17 567 524.16 549.73 513.32 595.61 512.48 595.51 506.43 540.38 507.45 458.44 456.01 519.15 448.95 550.7 465.16 552.51 461.64 526.21 448.12 537.86 446.77 570.3 463.45 572.12 459.93 544.91 445.96 576.96 442.21 576.51 438.31 545.69 441.89 567.93 423.36 565.41 420.33 538.53 442.72 525.29 444.26 548.33 425.07 545.8 422.04 518.13 445.1 459.8 451.89 536.82 395.05 591.04 392.6 590.77 386.55 545.56 388.59 559.99 377.94 615.77 375.42 615.5 369.37 568.73 371.5 608.47 342.15 604.9 337.31 566.7 365.5 582.14 323.98 576.47 321.87 557.81 372.05 541.4 384.16 557.4 341.16 551.74 339.05 532.53 390.72 458.7 445.21 486.61 396.44 518.38 380.7 516.63 377.15 490.14 390.28 495.97 380.11 528.65 363.92 526.9 360.37 499.5 373.96 515.52 345.95 512.11 343.98 496.7 370.91 494.99 342.02 491.05 342.25 493.12 377.17 486.49 388.74 484.73 358.8 480.78 359.03 482.91 394.99 453.67 446.07 453.67 350.05 483.9 304.98 478.87 301.61 453.67 339.19 453.67 321.26 484.77 274.88 479.75 271.51 453.67 310.4 453.67 261 447.65 261"/></clipPath><radialGradient id="radial-gradient" cx="-3466.32" cy="-630.98" fx="-3466.32" fy="-630.98" r="1" gradientTransform="translate(631961.8 -114501.18) scale(182.18 -182.18)" gradientUnits="userSpaceOnUse"><stop offset="0" stop-color="#aad3ff"/><stop offset="1" stop-color="#417691"/></radialGradient></defs><path class="cls-3" d="m812.19,154.5v294.99c0,66.01-35.21,127-92.38,160l-510.94,294.99c-28.58,16.5-60.48,24.75-92.38,24.75V154.5s695.69,0,695.69,0Z"/><g id="Artwork_4"><g class="cls-5"><g class="cls-4"><rect class="cls-2" x="281" y="261" width="339.64" height="387.53"/></g></g></g></svg>