<?xml version="1.0" encoding="UTF-8"?><svg id="Layer_1" xmlns="http://www.w3.org/2000/svg" width="434" height="418" xmlns:xlink="http://www.w3.org/1999/xlink" viewBox="0 0 434 418"><defs><style>.cls-1{fill:url(#radial-gradient);}.cls-1,.cls-2{stroke-width:0px;}.cls-2{fill:#c4addb;}</style><radialGradient id="radial-gradient" cx="216.61" cy="208.76" fx="216.61" fy="208.76" r="182.18" gradientUnits="userSpaceOnUse"><stop offset="0" stop-color="#aad3ff"/><stop offset="1" stop-color="#417691"/></radialGradient></defs><rect class="cls-2" y=".33" width="434" height="417.34" rx="93.11" ry="93.11"/><polygon class="cls-1" points="342.15 284.03 382.34 309.26 379.14 314.37 337.31 288.11 356.37 330.86 350.85 333.33 328.1 282.33 312.91 272.8 331.35 314.11 325.83 316.58 303.72 267.02 222.98 216.32 250.49 267.85 282.07 285.16 280.17 288.62 253.88 274.2 260.16 285.95 290.83 302.77 288.93 306.23 263.56 292.33 278.16 319.68 274.69 321.55 259.49 293.07 256.42 323.51 252.48 323.1 256.14 286.8 250.62 276.46 247.66 305.88 243.73 305.5 247.29 270.21 219.58 218.29 219.58 312.58 249.75 358.73 244.69 362.03 219.58 323.62 219.58 344.01 248.87 388.82 243.81 392.13 219.58 355.06 219.58 402.52 213.55 402.52 213.55 353.12 187.48 392.01 182.45 388.64 213.55 342.26 213.55 324.33 188.35 361.91 183.33 358.55 213.55 313.46 213.55 218.46 184.78 268.73 186.91 304.69 182.96 304.93 181.19 275 174.58 286.55 176.64 321.48 172.7 321.7 170.99 292.82 155.59 319.73 152.17 317.78 168.21 289.76 140.8 303.35 139.04 299.81 171.73 283.6 177.55 273.43 151.06 286.56 149.3 283.03 181.08 267.28 209.22 218.11 134.89 272.95 115.68 324.63 110.01 322.52 126.01 279.51 109.61 291.63 90.96 341.81 85.28 339.69 100.72 298.19 62.54 326.37 58.95 321.52 98.7 292.18 51.92 294.3 51.65 288.25 107.44 285.73 121.86 275.09 76.67 277.13 76.38 271.08 130.6 268.63 207.25 212.07 149.62 218.77 121.94 241.83 119.42 238.8 142.45 219.61 129.22 221.15 102.35 243.54 99.82 240.51 122.05 221.98 91.25 225.57 90.79 221.66 122.85 217.93 95.64 203.94 97.45 200.42 129.9 217.1 141.53 215.75 115.25 202.24 117.05 198.71 148.59 214.92 209.27 207.86 127.05 156.23 71.93 157.25 71.82 151.2 117.71 150.37 100.43 139.52 46.91 140.51 46.79 134.46 91.08 133.65 50.88 108.41 54.08 103.3 95.92 129.56 76.85 86.81 82.38 84.34 105.11 135.34 120.31 144.88 101.88 103.56 107.4 101.09 129.5 150.65 210.56 201.55 183.07 150.03 151.48 132.72 153.37 129.25 179.67 143.67 173.39 131.91 142.71 115.1 144.62 111.63 170 125.55 155.39 98.18 158.87 96.33 174.06 124.81 177.13 94.37 181.07 94.76 177.4 131.06 182.93 141.4 185.88 111.99 189.82 112.38 186.27 147.67 213.44 198.59 213.44 104.93 183.27 58.79 188.33 55.48 213.44 93.9 213.44 73.5 184.14 28.69 189.21 25.39 213.44 62.46 213.44 14.99 219.47 14.99 219.47 64.39 245.54 25.5 250.57 28.87 219.47 75.25 219.47 93.19 244.66 55.6 249.69 58.98 219.47 104.05 219.47 200.06 248.7 148.98 246.57 113.03 250.52 112.79 252.28 142.73 258.91 131.16 256.84 96.24 260.78 96.01 262.5 124.9 277.9 97.98 281.31 99.94 265.29 127.95 292.69 114.37 294.45 117.91 261.76 134.1 255.93 144.27 282.43 131.14 284.17 134.69 252.4 150.44 224.49 199.2 298.32 144.72 317.53 93.04 323.2 95.15 307.19 138.16 323.61 126.05 342.27 75.87 347.93 77.98 332.49 119.5 370.69 91.3 374.26 96.15 334.53 125.49 381.29 123.37 381.56 129.42 325.79 131.94 311.35 142.58 356.56 140.54 356.83 146.59 302.61 149.04 225.6 205.88 283.93 199.1 311.6 176.03 314.12 179.06 291.09 198.26 304.32 196.71 331.2 174.32 333.72 177.35 311.48 195.88 342.3 192.3 342.75 196.2 310.7 199.95 337.91 213.92 336.09 217.44 303.65 200.77 292.01 202.12 318.31 215.63 316.49 219.15 284.95 202.94 224.23 210 306.17 261.44 361.3 260.42 361.4 266.47 315.52 267.31 332.79 278.15 386.32 277.16 386.43 283.21 342.15 284.03"/></svg>