<?xml version="1.0" encoding="UTF-8"?><svg id="Layer_1" xmlns="http://www.w3.org/2000/svg" width="1828" height="1942" xmlns:xlink="http://www.w3.org/1999/xlink" viewBox="0 0 1828 1942"><defs><style>.cls-1{fill:#269696;}.cls-1,.cls-2,.cls-3,.cls-4,.cls-5{stroke-width:0px;}.cls-6{clip-path:url(#clippath-2);}.cls-2{fill:none;}.cls-7{clip-path:url(#clippath-1);}.cls-8{clip-path:url(#clippath);}.cls-3{fill:url(#radial-gradient);}.cls-4{fill:#c0f6ff;}.cls-5{fill:#f9a448;}</style><clipPath id="clippath"><rect class="cls-2" x="495" y="612" width="838" height="807.71"/></clipPath><clipPath id="clippath-1"><rect class="cls-2" x="495" y="612" width="838" height="807.71"/></clipPath><clipPath id="clippath-2"><path class="cls-2" d="m675.01,1015.87c0,131.96,106.97,238.93,238.93,238.93s238.93-106.97,238.93-238.93-106.97-238.93-238.93-238.93-238.93,106.97-238.93,238.93"/></clipPath><radialGradient id="radial-gradient" cx="-4546.58" cy="475.64" fx="-4546.58" fy="475.64" r="2.09" gradientTransform="translate(520644.75 55387.41) scale(114.31 -114.31)" gradientUnits="userSpaceOnUse"><stop offset="0" stop-color="#fff0b0"/><stop offset="1" stop-color="#ffab15"/></radialGradient></defs><path class="cls-4" d="m896.36,1661.25L37.5,920.43l754.02-433.36c79.02-45.41,176.26-45.22,255.1.5l743.74,431.35-894.01,742.32Z"/><g id="Artwork_1"><g class="cls-8"><g class="cls-7"><path class="cls-1" d="m1211.96,951.74c-.02.6-.02,1.19-.02,1.76l-1.34-.79,1.08-1.54c.09.2.18.37.29.57"/><path class="cls-1" d="m1211.96,951.74c-.02.6-.02,1.19-.02,1.76l-1.34-.79,1.08-1.54c.09.2.18.37.29.57"/><path class="cls-5" d="m1209.82,1063.68c-.35,11.4,7.94,21.1,16.31,28.86,14.68,13.64,31.26,25.24,49.07,34.41-17.5-3.09-35.34-4.34-53.13-3.73-6.04.2-12.21.66-17.79,3-15.5,6.52-21.89,26.19-18.67,42.7,3.22,16.51,13.64,30.55,23.76,43.98,16.4,21.69,32.78,43.36,49.16,65.05-38.31-24.4-78.94-49.55-124.31-51.67-4.26-.18-8.73-.11-12.41,1.99-5.78,3.3-7.89,10.51-8.88,17.11-1.87,12.48-1.5,25.28,1.08,37.63-10.6-3.66-17.33-15.3-28.3-17.57-8.47-1.76-17.26,2.84-22.79,9.5-5.51,6.66-8.35,15.1-10.85,23.39-6.55,21.85-11.42,44.18-14.57,66.75-7.65-15.32-15.41-30.82-26.74-43.67-11.02-12.52-25.99-22.44-42.55-24.07-41.95,23.39-62.49,74.2-65.76,122.39,2.4-36,3.95-75.24-17-104.64-6.39-8.99-15.85-17.08-26.87-17.02-11.42.09-20.81,8.73-28.26,17.37-13.07,15.19-24.07,32.16-32.56,50.3,2.45-17.61,3.04-35.47,1.76-53.22-.44-6.04-1.12-12.19-3.66-17.68-7.08-15.25-26.98-20.9-43.36-17.08-16.38,3.81-30.02,14.75-43.07,25.37-21.05,17.17-42.12,34.34-63.2,51.52,22.97-39.17,46.62-80.7,47.06-126.13.02-4.23-.2-8.71-2.45-12.32-3.51-5.64-10.8-7.5-17.41-8.24-12.54-1.41-25.33-.57-37.56,2.47,3.26-10.71,14.64-17.88,16.53-28.92,1.45-8.53-3.48-17.17-10.34-22.44-6.88-5.27-15.41-7.78-23.79-9.96-22.07-5.75-44.57-9.79-67.25-12.12,15.03-8.2,30.24-16.53,42.68-28.3,9.08-8.62,16.62-19.4,20.26-31.28-23.28-40.23-72.17-60.86-118.97-65.12,35.95,3.22,75.15,5.66,105-14.59,9.15-6.19,17.46-15.45,17.63-26.5.18-11.4-8.25-20.99-16.71-28.64-14.9-13.43-31.61-24.8-49.58-33.7,17.57,2.84,35.4,3.86,53.17,2.97,6.04-.29,12.21-.82,17.77-3.24,15.41-6.74,21.49-26.5,18.05-42.96-3.44-16.47-14.06-30.36-24.38-43.63-16.69-21.47-33.37-42.92-50.06-64.37,38.64,23.85,79.62,48.45,125.03,49.91,4.23.13,8.71,0,12.37-2.14,5.73-3.4,7.76-10.65,8.64-17.24,1.7-12.5,1.15-25.31-1.61-37.61,10.65,3.51,17.55,15.03,28.55,17.17,8.49,1.65,17.24-3.09,22.66-9.83,5.42-6.74,8.13-15.21,10.51-23.54,6.24-21.91,10.8-44.33,13.62-66.95,7.87,15.21,15.85,30.6,27.36,43.3,10.82,11.97,25.31,21.45,41.27,23.3,37.08-26.45,53.66-75.76,54.54-121.97-.64,36.09-.28,75.35,22.04,103.69,6.81,8.69,16.66,16.31,27.67,15.69,11.4-.64,20.37-9.7,27.38-18.69,12.32-15.81,22.48-33.31,30.09-51.85-1.59,17.72-1.3,35.6.82,53.23.73,6.02,1.7,12.12,4.52,17.48,7.8,14.9,27.95,19.57,44.13,14.97,16.18-4.61,29.27-16.18,41.79-27.42,20.19-18.19,40.41-36.35,60.62-54.52-21.05,40.25-42.65,82.89-40.89,128.25.18,4.26.62,8.71,3.04,12.19,3.77,5.49,11.16,6.99,17.79,7.41,12.59.79,25.33-.66,37.41-4.28-2.76,10.87-13.78,18.56-15.1,29.69-1.03,8.58,4.3,16.95,11.4,21.89,7.12,4.94,15.76,7.05,24.22,8.82,22.33,4.65,44.99,7.63,67.76,8.84-14.62,8.93-29.41,17.99-41.25,30.35-11.44,11.93-19.99,27.51-20.32,43.98-.11-.2-.2-.38-.29-.57l-1.08,1.54,1.34.79c0-.57,0-1.17.02-1.76,21.18,44.31,72.15,67.43,121.04,72.57-35.89-3.72-75.04-6.7-105.19,13.12-9.21,6.06-17.66,15.23-17.99,26.25"/></g><g class="cls-6"><rect class="cls-3" x="675.01" y="776.94" width="477.86" height="477.86"/></g></g></g></svg>