<?xml version="1.0" encoding="UTF-8"?><svg id="Layer_1" xmlns="http://www.w3.org/2000/svg" width="434" height="418" xmlns:xlink="http://www.w3.org/1999/xlink" viewBox="0 0 434 418"><defs><style>.cls-1{fill:#269696;}.cls-1,.cls-2,.cls-3,.cls-4{stroke-width:0px;}.cls-2{fill:url(#radial-gradient);}.cls-3{fill:#c0f6ff;}.cls-4{fill:#f9a448;}</style><radialGradient id="radial-gradient" cx="216.77" cy="209.22" fx="216.77" fy="209.22" r="114.31" gradientUnits="userSpaceOnUse"><stop offset="0" stop-color="#fff0b0"/><stop offset="1" stop-color="#ffab15"/></radialGradient></defs><rect class="cls-3" x="-.5" y=".75" width="434" height="417.34" rx="93.11" ry="93.11"/><path class="cls-1" d="m359.35,178.54c-.01.28-.01.57-.01.84l-.64-.38.52-.74c.04.1.08.18.14.27Z"/><path class="cls-1" d="m359.35,178.54c-.01.28-.01.57-.01.84l-.64-.38.52-.74c.04.1.08.18.14.27Z"/><path class="cls-4" d="m358.33,232.1c-.17,5.45,3.8,10.09,7.8,13.81,7.02,6.53,14.96,12.08,23.48,16.46-8.37-1.48-16.91-2.08-25.42-1.78-2.89.1-5.84.32-8.51,1.43-7.41,3.12-10.47,12.53-8.93,20.43s6.53,14.62,11.37,21.04c7.85,10.38,15.68,20.75,23.52,31.12-18.33-11.67-37.77-23.71-59.47-24.72-2.04-.08-4.18-.05-5.94.95-2.76,1.58-3.78,5.03-4.25,8.18-.9,5.97-.72,12.1.52,18-5.07-1.75-8.29-7.32-13.54-8.41-4.05-.84-8.26,1.36-10.9,4.55-2.64,3.19-4,7.22-5.19,11.19-3.13,10.45-5.46,21.14-6.97,31.93-3.66-7.33-7.37-14.74-12.79-20.89-5.27-5.99-12.43-10.74-20.35-11.52-20.07,11.19-29.9,35.5-31.46,58.55,1.15-17.22,1.89-36-8.13-50.06-3.06-4.3-7.58-8.17-12.86-8.14-5.46.04-9.96,4.18-13.52,8.31-6.25,7.27-11.52,15.39-15.58,24.07,1.17-8.43,1.46-16.97.84-25.46-.21-2.89-.54-5.83-1.75-8.46-3.39-7.3-12.91-10-20.74-8.17s-14.36,7.06-20.61,12.14c-10.07,8.22-20.15,16.43-30.24,24.65,10.99-18.74,22.31-38.61,22.52-60.35.01-2.02-.09-4.17-1.17-5.9-1.68-2.7-5.17-3.59-8.33-3.94-6-.67-12.12-.27-17.97,1.18,1.56-5.13,7-8.55,7.91-13.84.7-4.08-1.67-8.22-4.95-10.74-3.29-2.52-7.37-3.72-11.38-4.77-10.56-2.75-21.33-4.68-32.18-5.8,7.19-3.92,14.47-7.91,20.42-13.54,4.35-4.12,7.95-9.28,9.69-14.97-11.14-19.25-34.53-29.12-56.92-31.15,17.2,1.54,35.95,2.71,50.23-6.98,4.38-2.96,8.35-7.39,8.44-12.68.08-5.45-3.94-10.04-7.99-13.7-7.13-6.42-15.12-11.86-23.72-16.13,8.41,1.36,16.94,1.85,25.44,1.42,2.89-.14,5.84-.39,8.5-1.55,7.37-3.23,10.28-12.68,8.64-20.56-1.65-7.88-6.73-14.52-11.66-20.87-7.98-10.27-15.97-20.53-23.95-30.8,18.49,11.41,38.09,23.18,59.82,23.88,2.02.06,4.17,0,5.92-1.02,2.74-1.62,3.71-5.09,4.13-8.25.81-5.98.55-12.11-.77-17.99,5.09,1.68,8.4,7.19,13.66,8.22,4.06.79,8.25-1.48,10.84-4.7,2.59-3.23,3.89-7.28,5.03-11.26,2.98-10.48,5.17-21.21,6.52-32.03,3.77,7.28,7.58,14.64,13.09,20.71,5.18,5.73,12.11,10.26,19.74,11.15,17.74-12.66,25.67-36.25,26.09-58.35-.31,17.26-.14,36.05,10.55,49.61,3.26,4.16,7.97,7.8,13.24,7.51,5.45-.31,9.74-4.64,13.1-8.94,5.9-7.56,10.76-15.94,14.4-24.81-.76,8.48-.62,17.03.39,25.47.35,2.88.81,5.8,2.16,8.36,3.73,7.13,13.37,9.37,21.11,7.16,7.74-2.2,14.01-7.74,20-13.12,9.66-8.7,19.33-17.39,29-26.08-10.07,19.26-20.41,39.66-19.56,61.36.08,2.04.3,4.17,1.46,5.83,1.8,2.63,5.34,3.34,8.51,3.54,6.02.38,12.12-.32,17.9-2.05-1.32,5.2-6.59,8.88-7.22,14.21-.5,4.1,2.06,8.11,5.45,10.47,3.41,2.36,7.54,3.37,11.59,4.22,10.68,2.23,21.53,3.65,32.42,4.23-6.99,4.27-14.07,8.61-19.73,14.52-5.47,5.71-9.57,13.16-9.72,21.04-.05-.09-.09-.18-.14-.27l-.52.74.64.38c0-.27,0-.56.01-.84,10.14,21.2,34.52,32.26,57.91,34.72-17.17-1.78-35.9-3.21-50.33,6.28-4.41,2.9-8.45,7.29-8.61,12.56Z"/><circle class="cls-2" cx="216.77" cy="209.22" r="114.31"/></svg>